<svg width="80" height="65" viewBox="0 0 80 65" fill="none" xmlns="http://www.w3.org/2000/svg">
<path d="M68.7503 34.5831C68.7503 29.2931 73.0437 24.9998 78.3337 24.9998V21.1664C78.3337 5.83309 74.5003 1.99976 59.167 1.99976H20.8337C5.50033 1.99976 1.66699 5.83309 1.66699 21.1664V23.0831C6.95699 23.0831 11.2503 27.3764 11.2503 32.6664C11.2503 37.9564 6.95699 42.2498 1.66699 42.2498V44.1664C1.66699 59.4998 5.50033 63.3331 20.8337 63.3331H59.167C74.5003 63.3331 78.3337 59.4998 78.3337 44.1664C73.0437 44.1664 68.7503 39.8731 68.7503 34.5831Z" stroke="#292D32" stroke-width="3" stroke-linecap="round" stroke-linejoin="round"/>
<path d="M28.5 43.208L51.5 20.208" stroke="#F54749" stroke-width="4" stroke-linecap="round" stroke-linejoin="round"/>
<path d="M51.4796 43.2082H51.514" stroke="#F54749" stroke-width="7" stroke-linecap="round" stroke-linejoin="round"/>
<path d="M28.4796 22.1247H28.514" stroke="#F54749" stroke-width="7" stroke-linecap="round" stroke-linejoin="round"/>
</svg>
