<svg width="88" height="86" viewBox="0 0 88 86" fill="none" xmlns="http://www.w3.org/2000/svg">
<path d="M68.154 47.1007C66.544 48.6724 65.624 50.9341 65.854 53.3491C66.199 57.4891 69.994 60.5174 74.134 60.5174H81.4173V65.0791C81.4173 73.0141 74.939 79.4924 67.004 79.4924H28.249C29.4373 78.4958 30.4723 77.2691 31.2773 75.8891C32.6956 73.5891 33.5007 70.8674 33.5007 67.9924C33.5007 59.5208 26.639 52.6591 18.1673 52.6591C14.564 52.6591 11.229 53.9241 8.58398 56.0324V39.2808C8.58398 31.3458 15.0623 24.8674 22.9973 24.8674H67.004C74.939 24.8674 81.4173 31.3458 81.4173 39.2808V44.8008H73.674C71.5273 44.8008 69.5723 45.6441 68.154 47.1007Z" stroke="#292D32" stroke-width="4" stroke-linecap="round" stroke-linejoin="round"/>
<path d="M8.58398 42.7299V25.2118C8.58398 20.6501 11.3823 16.5866 15.6373 14.9766L46.074 3.47665C50.8273 1.67498 55.9257 5.20176 55.9257 10.3001V24.8667" stroke="#292D32" stroke-width="4" stroke-linecap="round" stroke-linejoin="round"/>
<path d="M85.4761 48.7114V56.6082C85.4761 58.7166 83.7894 60.4414 81.6427 60.5181H74.1294C69.9894 60.5181 66.1944 57.4898 65.8494 53.3498C65.6194 50.9348 66.5394 48.6731 68.1494 47.1014C69.5677 45.6448 71.5227 44.8015 73.6694 44.8015H81.6427C83.7894 44.8782 85.4761 46.603 85.4761 48.7114Z" stroke="#292D32" stroke-width="4" stroke-linecap="round" stroke-linejoin="round"/>
<path d="M25.834 41.1592H52.6673" stroke="#292D32" stroke-width="4" stroke-linecap="round" stroke-linejoin="round"/>
<path d="M33.5007 67.9925C33.5007 70.8675 32.6956 73.5892 31.2773 75.8892C30.4723 77.2692 29.4373 78.4958 28.249 79.4925C25.5657 81.9075 22.039 83.3258 18.1673 83.3258C12.5707 83.3258 7.70232 80.3358 5.05732 75.8892C3.63899 73.5892 2.83398 70.8675 2.83398 67.9925C2.83398 63.1625 5.05732 58.8309 8.58398 56.0325C11.229 53.9242 14.564 52.6592 18.1673 52.6592C26.639 52.6592 33.5007 59.5208 33.5007 67.9925Z" stroke="#292D32" stroke-width="4" stroke-miterlimit="10" stroke-linecap="round" stroke-linejoin="round"/>
<path d="M12.1924 67.9907L15.9873 71.7857L24.1524 64.2341" stroke="#F54749" stroke-width="4" stroke-linecap="round" stroke-linejoin="round"/>
</svg>
