<svg width="82" height="82" viewBox="0 0 82 82" fill="none" xmlns="http://www.w3.org/2000/svg">
<path d="M80 44.9V29.3C80 9.8 72.2 2 52.7 2H29.3C9.8 2 2 9.8 2 29.3V52.7C2 72.2 9.8 80 29.3 80H44.9" stroke="#292D32" stroke-width="4" stroke-linecap="round" stroke-linejoin="round"/>
<path d="M80 44.9V29.3C80 9.8 72.2 2 52.7 2H29.3C9.8 2 2 9.8 2 29.3V52.7C2 72.2 9.8 80 29.3 80H44.9" stroke="#292D32" stroke-width="4" stroke-linecap="round" stroke-linejoin="round"/>
<path d="M80 44.9V29.3C80 9.8 72.2 2 52.7 2H29.3C9.8 2 2 9.8 2 29.3V52.7C2 72.2 9.8 80 29.3 80H44.9" stroke="#292D32" stroke-width="4" stroke-linecap="round" stroke-linejoin="round"/>
<path d="M57 69.72L63.004 76L76 60" stroke="#F54749" stroke-width="4" stroke-linecap="round" stroke-linejoin="round"/>
<path d="M22 35V46" stroke="#292D32" stroke-width="4" stroke-linecap="round" stroke-linejoin="round"/>
<path d="M41 35V46" stroke="#292D32" stroke-width="4" stroke-linecap="round" stroke-linejoin="round"/>
<path d="M60 35V46" stroke="#292D32" stroke-width="4" stroke-linecap="round" stroke-linejoin="round"/>
</svg>
