<svg width="32" height="40" viewBox="0 0 32 40" fill="none" xmlns="http://www.w3.org/2000/svg">
<path d="M19.5272 19.0086L19.326 20.085C18.9665 22.0444 18.3271 23.9419 17.4274 25.7192C14.6313 31.1787 11.8905 30.2813 11.7645 30.2416C11.6864 30.1791 11.6337 30.0903 11.6164 29.9918L9.56738 19.128C10.7101 19.0904 17.4075 18.8826 19.5272 19.0086Z" fill="#292D32"/>
<path d="M20.5736 17.2914L20.3901 18.4231C20.3785 18.4925 20.3529 18.5589 20.3149 18.6181C20.2769 18.6774 20.2273 18.7283 20.1691 18.7679C20.1288 18.7963 20.0849 18.8194 20.0387 18.8364C18.7501 18.6154 10.6889 18.8696 9.51526 18.9094V18.8961L9.42021 18.9138H9.38706L9.29864 18.9293C9.26848 18.9316 9.23819 18.9316 9.20802 18.9293C9.09505 18.9287 8.98518 18.8923 8.89415 18.8254C8.83644 18.7828 8.78805 18.7289 8.75194 18.6669C8.71583 18.605 8.69277 18.5363 8.68417 18.4651L8.54271 17.3224C8.52671 17.1866 8.56376 17.0498 8.64612 16.9407C8.72849 16.8316 8.84981 16.7585 8.98478 16.7366L9.44011 16.6593C10.4812 16.6239 17.6184 16.4382 19.5767 16.5863C19.7639 16.6128 19.9495 16.6416 20.1337 16.6725C20.2273 16.6885 20.315 16.7289 20.3879 16.7897C20.4605 16.8493 20.516 16.9273 20.5486 17.0154C20.5813 17.1036 20.5899 17.1988 20.5736 17.2914Z" fill="#292D32"/>
<path d="M19.2184 14.157L18.7764 10.521H18.8582C19.0207 10.5198 19.1781 10.5783 19.3003 10.6855C19.4226 10.7926 19.5012 10.941 19.5213 11.1023L19.7136 12.6496C19.7489 12.9219 19.7228 13.1986 19.6372 13.4595C19.5515 13.7204 19.4084 13.9587 19.2184 14.157Z" fill="#292D32"/>
<path d="M19.001 14.3823C18.3242 14.9619 17.5495 15.4162 16.7133 15.724C15.8292 16.0467 10.3851 16.5507 9.90546 16.785L9.76842 15.6798C9.74894 15.4866 9.80542 15.2935 9.92589 15.1412C10.0464 14.989 10.2214 14.8896 10.4138 14.8642C13.2517 14.4051 16.1296 14.2436 19.001 14.3823Z" fill="#292D32"/>
<path d="M12.0226 39.417H2.56677L2.55572 39.4059C2.55864 37.8837 3.16541 36.4248 4.24284 35.3494C5.32027 34.2741 6.78034 33.6701 8.3026 33.6701H12.0712C19.7389 33.6701 26.1422 27.5806 26.2528 19.9152C26.2782 18.065 25.936 16.2282 25.2461 14.5113C24.5561 12.7944 23.532 11.2316 22.2333 9.91361C20.9347 8.59559 19.3872 7.54857 17.6807 6.83331C15.9742 6.11804 14.1426 5.74876 12.2923 5.74688H8.28271C6.76237 5.74396 5.30513 5.13871 4.23009 4.06367C3.15504 2.98863 2.5498 1.53139 2.54688 0.0110517L2.56677 0H12.2923C14.8951 0.00312016 17.4715 0.521159 19.8732 1.52428C22.275 2.5274 24.4545 3.99578 26.2863 5.84484C28.1181 7.6939 29.566 9.8871 30.5465 12.2981C31.5271 14.7091 32.0209 17.2903 31.9996 19.8931C31.8936 30.748 22.8798 39.417 12.0226 39.417Z" fill="#292D32"/>
<path d="M10.9039 30.3214H3.75341C3.3364 30.3216 2.92342 30.2398 2.53807 30.0804C2.15272 29.921 1.80256 29.6872 1.50759 29.3925C1.21262 29.0977 0.978619 28.7477 0.81897 28.3625C0.659321 27.9772 0.577148 27.5643 0.577148 27.1473L0.577148 26.9661H10.2562L10.8508 30.1202C10.8612 30.189 10.879 30.2564 10.9039 30.3214Z" fill="#292D32"/>
<path d="M10.1501 26.4004H2.16417C1.74345 26.3998 1.34012 26.2324 1.04262 25.9349C0.745125 25.6374 0.577733 25.2341 0.577148 24.8134L0.577148 24.6388C0.577733 24.2181 0.745125 23.8147 1.04262 23.5172C1.34012 23.2197 1.74345 23.0523 2.16417 23.0518H9.51797L10.1501 26.4004Z" fill="#292D32"/>
<path d="M9.41851 22.4793H0.577148V22.3047C0.577148 21.8877 0.659321 21.4747 0.81897 21.0895C0.978619 20.7043 1.21262 20.3543 1.50759 20.0595C1.80256 19.7647 2.15272 19.531 2.53807 19.3716C2.92342 19.2122 3.3364 19.1303 3.75341 19.1306H8.12988C8.21306 19.2602 8.31947 19.3734 8.44375 19.4644C8.57062 19.5564 8.71281 19.6253 8.86371 19.6677V19.7075H8.88361L9.41851 22.4793Z" fill="#292D32"/>
</svg>
