<svg width="63" height="79" viewBox="0 0 63 79" fill="none" xmlns="http://www.w3.org/2000/svg">
<path d="M37.5679 38.1L37.1691 40.2341C36.4563 44.1186 35.1886 47.8804 33.4049 51.404C27.8616 62.2277 22.4278 60.4486 22.178 60.3697C22.0232 60.2458 21.9188 60.0698 21.8844 59.8745L17.8223 38.3366C20.0878 38.2621 33.3655 37.8502 37.5679 38.1Z" fill="#FBF9F3"/>
<path d="M39.642 34.6945L39.2783 36.9381C39.2552 37.0758 39.2044 37.2073 39.1291 37.3247C39.0538 37.4422 38.9555 37.5433 38.8401 37.6217C38.7602 37.6781 38.6733 37.7237 38.5816 37.7576C36.0268 37.3194 20.0454 37.8233 17.7185 37.9022V37.8759L17.5301 37.911H17.4644L17.2891 37.9416C17.2293 37.9462 17.1692 37.9462 17.1094 37.9416C16.8855 37.9404 16.6676 37.8683 16.4872 37.7357C16.3728 37.6513 16.2768 37.5444 16.2052 37.4215C16.1336 37.2987 16.0879 37.1625 16.0709 37.0214L15.7904 34.7559C15.7587 34.4867 15.8322 34.2156 15.9955 33.9993C16.1587 33.7829 16.3993 33.6379 16.6668 33.5946L17.5696 33.4412C19.6335 33.3711 33.7832 33.003 37.6657 33.2966C38.0367 33.3492 38.4048 33.4062 38.77 33.4675C38.9555 33.4993 39.1293 33.5794 39.2739 33.6998C39.4179 33.8181 39.5279 33.9726 39.5926 34.1473C39.6572 34.3221 39.6743 34.511 39.642 34.6945Z" fill="#FBF9F3"/>
<path d="M36.9584 28.482L36.082 21.2735H36.2442C36.5665 21.271 36.8785 21.387 37.1208 21.5995C37.3632 21.812 37.519 22.1061 37.5588 22.426L37.94 25.4934C38.0102 26.0332 37.9585 26.582 37.7886 27.0992C37.6187 27.6164 37.335 28.0889 36.9584 28.482Z" fill="#FBF9F3"/>
<path d="M36.5252 28.9255C35.1835 30.0746 33.6476 30.9753 31.9898 31.5855C30.237 32.2252 19.4439 33.2244 18.493 33.6889L18.2213 31.4978C18.1827 31.1149 18.2947 30.7319 18.5335 30.4301C18.7724 30.1283 19.1193 29.9313 19.5009 29.8808C25.127 28.9707 30.8327 28.6506 36.5252 28.9255Z" fill="#FBF9F3"/>
<path d="M22.6902 78.5585H3.94374L3.92183 78.5366C3.92763 75.5187 5.13056 72.6264 7.26661 70.4945C9.40265 68.3625 12.2973 67.1652 15.3152 67.1652H22.7866C37.988 67.1652 50.6829 55.0926 50.902 39.8955C50.9525 36.2275 50.2741 32.586 48.9062 29.1822C47.5382 25.7784 45.5081 22.6802 42.9334 20.0671C40.3587 17.4541 37.2907 15.3784 33.9075 13.9603C30.5243 12.5423 26.8932 11.8102 23.2248 11.8065H15.2758C12.2616 11.8007 9.37263 10.6008 7.24132 8.46945C5.11001 6.33813 3.91009 3.44912 3.9043 0.434996L3.94374 0.413086H23.2248C28.385 0.419272 33.4929 1.4463 38.2544 3.43502C43.0159 5.42373 47.3368 8.33484 50.9685 12.0007C54.6001 15.6665 57.4705 20.0146 59.4145 24.7945C61.3585 29.5745 62.3376 34.6918 62.2954 39.8517C62.085 61.3721 44.215 78.5585 22.6902 78.5585Z" fill="#FBF9F3"/>
<path d="M20.473 60.5261H6.29703C5.4703 60.5266 4.65156 60.3643 3.8876 60.0483C3.12363 59.7323 2.42942 59.2689 1.84462 58.6845C1.25983 58.1002 0.795928 57.4063 0.479419 56.6425C0.162909 55.8788 -2.00459e-07 55.0601 0 54.2334L0 53.8741H19.1891L20.3679 60.1273C20.3886 60.2636 20.4238 60.3973 20.473 60.5261Z" fill="#FBF9F3"/>
<path d="M18.9787 52.7539H3.14633C2.31222 52.7528 1.51262 52.4209 0.922818 51.8311C0.333018 51.2413 0.00115928 50.4417 0 49.6076L0 49.2614C0.00115928 48.4273 0.333018 47.6277 0.922818 47.0379C1.51262 46.4481 2.31222 46.1163 3.14633 46.1151H17.7255L18.9787 52.7539Z" fill="#FBF9F3"/>
<path d="M17.5283 44.9806H0V44.6345C-2.00459e-07 43.8077 0.162909 42.9891 0.479419 42.2253C0.795928 41.4616 1.25983 40.7677 1.84462 40.1833C2.42942 39.5989 3.12363 39.1355 3.8876 38.8195C4.65156 38.5036 5.4703 38.3412 6.29703 38.3418H14.9735C15.1385 38.5988 15.3494 38.8231 15.5958 39.0035C15.8473 39.186 16.1292 39.3225 16.4284 39.4066V39.4855H16.4678L17.5283 44.9806Z" fill="#FBF9F3"/>
</svg>
