<svg width="18" height="34" viewBox="0 0 18 34" fill="none" xmlns="http://www.w3.org/2000/svg">
<rect x="1" y="1" width="16" height="26.5283" rx="8" stroke="#EFEAE7" stroke-width="2"/>
<path d="M9.33301 6.79248V10.868" stroke="#EFEAE7" stroke-width="2" stroke-linecap="round"/>
<path d="M14.4759 30.3722C14.7069 30.6076 14.7083 30.9865 14.4612 31.2049C12.9507 32.5407 11.0126 33.2829 8.99935 33.2829C6.98613 33.2829 5.04802 32.5407 3.53745 31.2049C3.2904 30.9865 3.2918 30.6076 3.5228 30.3722C3.75999 30.1305 4.14784 30.1328 4.40486 30.3532C5.68591 31.452 7.31181 32.0612 8.99935 32.0612C10.6869 32.0612 12.3128 31.452 13.5938 30.3532C13.8509 30.1328 14.2387 30.1305 14.4759 30.3722Z" fill="#EFEAE7"/>
</svg>
