<svg width="352" height="383" viewBox="0 0 352 383" fill="none" xmlns="http://www.w3.org/2000/svg">
<path d="M247.803 377.899L162.442 223.997C162.418 223.621 162.302 223.256 162.103 222.935C161.904 222.614 161.63 222.347 161.303 222.158C160.929 221.943 160.501 221.84 160.07 221.86C160.056 221.859 160.042 221.86 160.028 221.859C160.015 221.86 160.001 221.859 159.987 221.86C159.403 221.833 158.831 222.032 158.391 222.417C157.95 222.801 157.676 223.341 157.625 223.924L67.1547 377.899C67.0039 378.16 66.9059 378.448 66.8664 378.747C66.827 379.046 66.8468 379.35 66.9247 379.641C67.0026 379.932 67.1372 380.205 67.3206 380.444C67.5041 380.683 67.7328 380.884 67.9939 381.035C68.2549 381.185 68.5431 381.283 68.8419 381.323C69.1407 381.362 69.4444 381.342 69.7355 381.264C70.0266 381.186 70.2995 381.051 70.5386 380.867C70.7776 380.684 70.9781 380.455 71.1287 380.194L159.967 228.995L243.829 380.194C243.98 380.455 244.18 380.684 244.42 380.867C244.659 381.051 244.931 381.186 245.223 381.264C245.514 381.342 245.817 381.362 246.116 381.323C246.415 381.283 246.703 381.185 246.964 381.035C247.225 380.884 247.454 380.683 247.637 380.444C247.821 380.205 247.955 379.932 248.033 379.641C248.111 379.35 248.131 379.046 248.092 378.747C248.052 378.448 247.954 378.16 247.803 377.899Z" fill="#292D32"/>
<path d="M145.884 351.494L155.533 349.28L151.586 311.012L137.346 314.279L145.884 351.494Z" fill="#FFB6B6"/>
<path d="M153.344 333.007L139.613 336.157L135.223 327.577L134.974 327.273C133.026 324.882 131.945 321.903 131.907 318.82L120.494 288.631L119.561 288.187C118.839 287.844 118.199 287.351 117.683 286.74C117.167 286.13 116.787 285.416 116.569 284.647C116.351 283.878 116.299 283.071 116.417 282.28C116.535 281.49 116.821 280.734 117.255 280.062L116.047 276.866L81.955 276.929L81.921 276.919L40.0566 265.176L44.4524 238.972L56.2287 246.38C60.1092 246.128 126.583 242.047 132.724 256.944C138.192 270.21 146.072 292.874 151.72 309.551C152.002 310.3 152.352 311.021 152.766 311.705C153.644 313.058 154.16 314.615 154.263 316.225C154.33 316.926 154.463 317.618 154.662 318.293C157.01 325.311 153.433 332.822 153.397 332.897L153.344 333.007Z" fill="#2F2E41"/>
<path d="M142.625 348.295L145.762 347.575L156.867 339.785L164.573 343.259L164.574 343.259C168.284 342.408 172.18 343.065 175.404 345.087C178.629 347.108 180.919 350.327 181.77 354.037L181.874 354.492L145.939 362.737L142.625 348.295Z" fill="#2F2E41"/>
<path d="M0.166487 349.154C1.14745 338.476 7.40186 327.786 17.4333 324C13.7849 335.074 14.1715 347.083 18.5246 357.9C20.2185 362.066 22.5364 366.523 21.2068 370.818C20.3796 373.491 18.2132 375.586 15.7596 376.931C13.3058 378.276 10.5569 378.967 7.84228 379.646L7.3186 380.108C2.66427 370.448 -0.814472 359.831 0.166487 349.154Z" fill="#F0F0F0"/>
<path d="M17.5403 324.197C11.8464 331.005 8.44224 339.434 7.81145 348.287C7.64183 350.19 7.77328 352.108 8.20098 353.971C8.67623 355.771 9.62504 357.412 10.9488 358.722C12.1586 359.969 13.5403 361.103 14.4261 362.622C14.8679 363.406 15.139 364.275 15.2216 365.171C15.3042 366.067 15.1964 366.971 14.9053 367.822C14.2351 369.963 12.8356 371.736 11.4068 373.422C9.82041 375.293 8.14297 377.212 7.52125 379.646C7.44592 379.941 6.99275 379.807 7.06796 379.512C8.14966 375.278 12.1456 372.764 13.9664 368.923C14.8161 367.131 15.1307 365.072 14.2213 363.238C13.4261 361.634 12.0022 360.463 10.7664 359.211C9.45627 357.952 8.47437 356.391 7.90648 354.665C7.38533 352.831 7.18021 350.921 7.29987 349.017C7.5009 344.728 8.37515 340.496 9.89059 336.478C11.5947 331.883 14.0724 327.613 17.2164 323.853C17.4111 323.62 17.7338 323.966 17.5403 324.197Z" fill="white"/>
<path d="M7.84659 345.424C6.37568 345.117 5.06194 344.296 4.14001 343.11C3.21808 341.923 2.74799 340.447 2.81368 338.946C2.81692 338.885 2.84379 338.827 2.88863 338.786C2.93347 338.744 2.99277 338.721 3.05405 338.722C3.11532 338.723 3.17378 338.748 3.2171 338.791C3.26043 338.835 3.28524 338.893 3.2863 338.954C3.22255 340.352 3.66059 341.727 4.52135 342.83C5.38211 343.933 6.60889 344.693 7.98029 344.971C8.27823 345.032 8.14283 345.485 7.84659 345.424Z" fill="white"/>
<path d="M10.2522 358.172C12.8377 356.513 14.7031 353.941 15.4764 350.968C15.5527 350.673 16.0059 350.807 15.9297 351.101C15.1192 354.194 13.1726 356.867 10.4782 358.587C10.2213 358.75 9.99667 358.334 10.2522 358.172Z" fill="white"/>
<path d="M12.0465 332.316C12.5908 332.554 13.1856 332.652 13.7775 332.603C14.3694 332.554 14.9398 332.359 15.4375 332.035C15.6922 331.868 15.9166 332.284 15.6635 332.45C15.1119 332.805 14.4817 333.02 13.8279 333.076C13.1741 333.132 12.5166 333.026 11.9128 332.769C11.8539 332.75 11.8045 332.709 11.7749 332.654C11.7452 332.6 11.7374 332.536 11.753 332.476C11.771 332.416 11.8119 332.365 11.8669 332.336C11.9218 332.306 11.9864 332.299 12.0465 332.316Z" fill="white"/>
<path d="M48.9586 342.002C48.8025 342.11 48.6465 342.219 48.4903 342.332C46.3994 343.805 44.4316 345.446 42.6064 347.238C42.463 347.374 42.3199 347.514 42.1808 347.654C37.8294 352.018 34.3261 357.152 31.8489 362.795C30.8652 365.041 30.0538 367.359 29.4218 369.729C28.5492 373.001 27.8634 376.619 26.0151 379.332C25.8254 379.617 25.6183 379.89 25.3948 380.15L7.92239 380.711C7.88204 380.692 7.84163 380.678 7.80109 380.659L7.10449 380.713C7.12855 380.589 7.15618 380.46 7.18024 380.336C7.19389 380.263 7.21144 380.191 7.2251 380.119C7.23544 380.071 7.24598 380.022 7.25255 379.978C7.25593 379.962 7.2595 379.946 7.26301 379.934C7.26958 379.89 7.28035 379.85 7.28708 379.809C7.43953 379.09 7.59731 378.371 7.76041 377.651C7.76028 377.647 7.76028 377.647 7.76405 377.643C8.9544 372.149 10.7924 366.814 13.2394 361.753C13.3145 361.603 13.3892 361.449 13.4723 361.298C14.6087 359.056 15.9264 356.91 17.4124 354.883C18.2296 353.775 19.1024 352.709 20.0274 351.69C22.4225 349.061 25.2163 346.824 28.3063 345.063C34.4667 341.553 41.6811 340.053 48.4433 341.859C48.6163 341.905 48.7855 341.951 48.9586 342.002Z" fill="#F0F0F0"/>
<path d="M48.9269 342.225C40.2818 344.233 32.489 348.913 26.6554 355.602C25.374 357.019 24.3241 358.63 23.5443 360.375C22.8396 362.099 22.6093 363.98 22.8775 365.823C23.0931 367.546 23.5132 369.284 23.306 371.03C23.1867 371.922 22.8802 372.779 22.4065 373.544C21.9329 374.31 21.3028 374.966 20.5576 375.471C18.7335 376.777 16.549 377.35 14.3932 377.835C11.9996 378.375 9.50495 378.897 7.54323 380.466C7.30554 380.656 7.02447 380.276 7.2618 380.086C10.6749 377.356 15.3789 377.755 19.1453 375.785C20.9028 374.865 22.3938 373.41 22.7718 371.398C23.1024 369.639 22.6708 367.847 22.4375 366.104C22.1495 364.309 22.3051 362.472 22.8909 360.752C23.5794 358.973 24.5655 357.325 25.8071 355.877C28.5503 352.573 31.7959 349.721 35.425 347.425C39.5524 344.782 44.1015 342.864 48.8755 341.755C49.171 341.687 49.2205 342.157 48.9269 342.225Z" fill="white"/>
<path d="M28.4075 353.337C27.4182 352.206 26.8631 350.76 26.8415 349.258C26.8198 347.755 27.333 346.294 28.2893 345.135C28.4836 344.901 28.8562 345.192 28.6616 345.426C27.7691 346.504 27.2912 347.865 27.3142 349.264C27.3372 350.663 27.8597 352.008 28.7872 353.056C28.9884 353.284 28.6076 353.564 28.4075 353.337Z" fill="white"/>
<path d="M22.6536 364.963C25.7167 365.195 28.7547 364.265 31.162 362.356C31.4004 362.167 31.6815 362.547 31.4435 362.736C28.9347 364.717 25.7711 365.679 22.5842 365.43C22.2804 365.406 22.3515 364.939 22.6536 364.963Z" fill="white"/>
<path d="M39.6526 345.4C39.9442 345.917 40.3598 346.354 40.862 346.671C41.3641 346.989 41.9372 347.176 42.5297 347.217C42.8336 347.237 42.7622 347.704 42.4603 347.684C41.8058 347.636 41.1732 347.428 40.6176 347.079C40.062 346.73 39.6003 346.25 39.273 345.681C39.2376 345.63 39.223 345.568 39.2321 345.506C39.2413 345.445 39.2734 345.389 39.3221 345.351C39.3725 345.314 39.4356 345.298 39.4974 345.308C39.5593 345.317 39.6151 345.35 39.6526 345.4Z" fill="white"/>
<path d="M286.033 349.154C285.052 338.476 278.797 327.786 268.766 324C272.414 335.074 272.028 347.083 267.675 357.9C265.981 362.066 263.663 366.523 264.992 370.818C265.82 373.491 267.986 375.586 270.44 376.931C272.893 378.276 275.642 378.967 278.357 379.646L278.881 380.108C283.535 370.448 287.014 359.831 286.033 349.154Z" fill="#F0F0F0"/>
<path d="M268.658 324.197C274.352 331.005 277.756 339.434 278.387 348.287C278.557 350.19 278.425 352.108 277.998 353.971C277.522 355.771 276.573 357.412 275.25 358.722C274.04 359.969 272.658 361.103 271.772 362.622C271.331 363.406 271.06 364.275 270.977 365.171C270.894 366.067 271.002 366.971 271.293 367.822C271.963 369.963 273.363 371.736 274.792 373.422C276.378 375.293 278.056 377.212 278.677 379.646C278.753 379.941 279.206 379.807 279.131 379.512C278.049 375.278 274.053 372.764 272.232 368.923C271.382 367.131 271.068 365.072 271.977 363.238C272.772 361.634 274.196 360.463 275.432 359.211C276.742 357.952 277.724 356.391 278.292 354.665C278.813 352.831 279.018 350.921 278.899 349.017C278.698 344.728 277.823 340.496 276.308 336.478C274.604 331.883 272.126 327.613 268.982 323.853C268.787 323.62 268.465 323.966 268.658 324.197Z" fill="white"/>
<path d="M278.352 345.424C279.823 345.117 281.137 344.296 282.059 343.11C282.981 341.923 283.451 340.447 283.385 338.946C283.382 338.885 283.355 338.827 283.31 338.786C283.266 338.744 283.206 338.721 283.145 338.722C283.084 338.723 283.025 338.748 282.982 338.791C282.939 338.835 282.914 338.893 282.913 338.955C282.977 340.352 282.538 341.727 281.678 342.83C280.817 343.934 279.59 344.693 278.219 344.971C277.921 345.032 278.056 345.485 278.352 345.424Z" fill="white"/>
<path d="M275.947 358.172C273.361 356.513 271.496 353.941 270.723 350.968C270.646 350.673 270.193 350.807 270.269 351.101C271.08 354.194 273.026 356.867 275.721 358.587C275.978 358.75 276.202 358.334 275.947 358.172Z" fill="white"/>
<path d="M274.151 332.316C273.607 332.554 273.012 332.652 272.42 332.603C271.828 332.554 271.258 332.359 270.76 332.035C270.505 331.868 270.281 332.284 270.534 332.45C271.085 332.805 271.716 333.02 272.369 333.076C273.023 333.132 273.681 333.026 274.285 332.769C274.344 332.75 274.393 332.709 274.423 332.654C274.452 332.6 274.46 332.536 274.444 332.476C274.426 332.416 274.385 332.365 274.33 332.336C274.276 332.306 274.211 332.299 274.151 332.316Z" fill="white"/>
<path d="M237.24 342.002C237.396 342.11 237.552 342.219 237.709 342.332C239.799 343.805 241.767 345.446 243.592 347.238C243.736 347.374 243.879 347.514 244.018 347.654C248.369 352.018 251.873 357.152 254.35 362.795C255.334 365.041 256.145 367.359 256.777 369.729C257.65 373.001 258.336 376.619 260.184 379.332C260.373 379.617 260.581 379.89 260.804 380.15L278.276 380.711C278.317 380.692 278.357 380.678 278.398 380.659L279.094 380.713C279.07 380.589 279.043 380.46 279.019 380.336C279.005 380.263 278.987 380.191 278.974 380.119C278.963 380.071 278.953 380.022 278.946 379.978C278.943 379.962 278.939 379.946 278.936 379.934C278.929 379.89 278.918 379.85 278.912 379.809C278.759 379.09 278.602 378.371 278.438 377.651C278.439 377.647 278.439 377.647 278.435 377.643C277.244 372.149 275.407 366.814 272.959 361.753C272.884 361.603 272.81 361.449 272.727 361.298C271.59 359.056 270.272 356.91 268.786 354.883C267.969 353.775 267.096 352.709 266.171 351.69C263.776 349.061 260.983 346.824 257.893 345.063C251.732 341.553 244.518 340.053 237.756 341.859C237.583 341.905 237.413 341.951 237.24 342.002Z" fill="#F0F0F0"/>
<path d="M237.272 342.225C245.917 344.233 253.71 348.913 259.543 355.602C260.825 357.019 261.875 358.63 262.655 360.375C263.359 362.099 263.59 363.98 263.321 365.823C263.106 367.546 262.686 369.284 262.893 371.03C263.012 371.922 263.319 372.779 263.792 373.544C264.266 374.31 264.896 374.966 265.641 375.471C267.465 376.777 269.65 377.349 271.806 377.835C274.199 378.375 276.694 378.897 278.656 380.466C278.893 380.656 279.174 380.276 278.937 380.086C275.524 377.356 270.82 377.755 267.054 375.785C265.296 374.865 263.805 373.41 263.427 371.398C263.096 369.639 263.528 367.847 263.761 366.103C264.049 364.309 263.894 362.472 263.308 360.752C262.62 358.973 261.633 357.325 260.392 355.877C257.649 352.573 254.403 349.721 250.774 347.425C246.647 344.782 242.097 342.864 237.323 341.755C237.028 341.687 236.978 342.157 237.272 342.225Z" fill="white"/>
<path d="M257.791 353.337C258.78 352.206 259.336 350.76 259.357 349.258C259.379 347.755 258.866 346.294 257.909 345.135C257.715 344.901 257.343 345.192 257.537 345.426C258.43 346.504 258.907 347.865 258.884 349.264C258.861 350.663 258.339 352.008 257.412 353.056C257.21 353.284 257.591 353.564 257.791 353.337Z" fill="white"/>
<path d="M263.545 364.963C260.482 365.195 257.444 364.265 255.037 362.356C254.798 362.167 254.517 362.547 254.755 362.736C257.264 364.717 260.428 365.679 263.615 365.43C263.918 365.406 263.847 364.939 263.545 364.963Z" fill="white"/>
<path d="M246.546 345.4C246.255 345.917 245.839 346.354 245.337 346.671C244.835 346.989 244.262 347.176 243.669 347.217C243.365 347.237 243.437 347.704 243.739 347.684C244.393 347.636 245.026 347.428 245.581 347.079C246.137 346.73 246.599 346.25 246.926 345.681C246.961 345.63 246.976 345.568 246.967 345.506C246.958 345.445 246.925 345.389 246.877 345.351C246.826 345.314 246.763 345.298 246.701 345.308C246.64 345.317 246.584 345.35 246.546 345.4Z" fill="white"/>
<path d="M243.904 146.846C245.171 146.846 246.198 145.819 246.198 144.552C246.198 143.285 245.171 142.257 243.904 142.257C242.637 142.257 241.609 143.285 241.609 144.552C241.609 145.819 242.637 146.846 243.904 146.846Z" fill="#292D32"/>
<path d="M215.173 162.226L246.107 142.792C246.386 142.616 246.699 142.499 247.025 142.447C247.352 142.395 247.685 142.41 248.006 142.491C248.326 142.572 248.627 142.717 248.89 142.917C249.153 143.118 249.372 143.369 249.535 143.657C249.698 143.944 249.801 144.262 249.838 144.59C249.875 144.919 249.844 145.251 249.749 145.567C249.654 145.884 249.495 146.178 249.283 146.431C249.071 146.685 248.81 146.893 248.516 147.042L215.95 163.596C215.769 163.688 215.56 163.706 215.366 163.648C215.171 163.589 215.007 163.458 214.907 163.282C214.807 163.105 214.779 162.897 214.829 162.7C214.878 162.504 215.002 162.334 215.173 162.226Z" fill="#E4E4E4"/>
<path d="M153.115 204.071C152.871 203.709 152.744 203.281 152.75 202.845C152.757 202.408 152.896 201.984 153.15 201.629C153.674 200.928 154.371 200.375 155.172 200.025C156.827 199.183 158.61 198.62 160.449 198.358C161.846 198.159 163.371 198.096 164.455 197.192C165.532 196.294 166.132 194.615 167.527 194.475C168.876 194.34 169.913 195.816 171.265 195.908C172.932 196.021 174.023 194.07 175.646 193.67C176.731 193.402 177.848 193.874 178.866 194.336L184.978 197.109L188.111 198.531C189.205 199.027 190.44 199.696 190.646 200.879C190.93 202.506 189.121 203.653 187.574 204.231C176.53 208.307 164.394 208.308 153.349 204.235" fill="#DBBE8F"/>
<path d="M162.322 234.036C206.674 234.036 242.629 228.9 242.629 222.564C242.629 216.228 206.674 211.092 162.322 211.092C117.97 211.092 82.0156 216.228 82.0156 222.564C82.0156 228.9 117.97 234.036 162.322 234.036Z" fill="#292D32"/>
<path d="M325.23 293.693H270.162C267.628 293.693 265.573 295.748 265.573 298.282C265.573 300.816 267.628 302.871 270.162 302.871H325.23C327.764 302.871 329.819 300.816 329.819 298.282C329.819 295.748 327.764 293.693 325.23 293.693Z" fill="#292D32"/>
<path d="M351.917 211.877L333.73 298.277L338.467 320.391L347.41 362.125V380.883C347.411 380.909 347.409 380.934 347.405 380.96C347.402 381.374 347.326 381.785 347.18 382.173H339.991C339.846 381.785 339.77 381.374 339.767 380.96C339.763 380.934 339.761 380.909 339.762 380.883V362.93L331.644 325.051L330.002 317.403L326.826 302.58L325.908 298.287V298.282L326.816 293.979L327.514 290.659L344.432 210.307C344.535 209.815 344.734 209.348 345.017 208.933C345.3 208.518 345.662 208.163 346.083 207.888C346.503 207.613 346.974 207.423 347.468 207.33C347.962 207.237 348.469 207.243 348.961 207.346C349.453 207.449 349.919 207.648 350.334 207.932C350.749 208.215 351.104 208.578 351.378 208.999C351.653 209.42 351.842 209.89 351.934 210.384C352.027 210.878 352.021 211.386 351.917 211.877Z" fill="#292D32"/>
<path d="M273.987 298.282V380.883C273.988 380.909 273.986 380.934 273.982 380.96C273.979 381.374 273.903 381.785 273.758 382.173H266.569C266.423 381.785 266.347 381.374 266.344 380.96C266.34 380.934 266.338 380.909 266.339 380.883V298.282C266.339 297.268 266.742 296.295 267.459 295.578C268.176 294.861 269.149 294.458 270.163 294.458C271.177 294.458 272.15 294.861 272.867 295.578C273.584 296.295 273.987 297.268 273.987 298.282Z" fill="#292D32"/>
<path d="M279.34 284.515H316.052C319.703 284.515 323.205 285.966 325.786 288.547C328.368 291.129 329.819 294.631 329.819 298.282H265.573C265.573 294.631 267.024 291.129 269.605 288.547C272.187 285.966 275.689 284.515 279.34 284.515Z" fill="#292D32"/>
<path d="M334.408 325.051H270.163C269.149 325.051 268.176 324.648 267.459 323.931C266.742 323.214 266.339 322.241 266.339 321.227C266.339 320.212 266.742 319.24 267.459 318.523C268.176 317.805 269.149 317.403 270.163 317.403H334.408C335.423 317.403 336.395 317.805 337.112 318.523C337.83 319.24 338.232 320.212 338.232 321.227C338.232 322.241 337.83 323.214 337.112 323.931C336.395 324.648 335.423 325.051 334.408 325.051Z" fill="#292D32"/>
<path d="M35.5704 303.01H100.372C102.906 303.01 104.961 300.955 104.961 298.421V297.03C104.961 294.496 102.906 292.441 100.372 292.441H35.5704C33.036 292.441 30.9815 294.496 30.9815 297.03V298.421C30.9815 300.955 33.036 303.01 35.5704 303.01Z" fill="#292D32"/>
<path d="M34.9031 297.787L33.7302 302.621L29.4268 320.324L27.571 327.972L18.9538 363.45V378.843C18.956 379.597 18.7323 380.334 18.3114 380.959C17.9805 381.465 17.5306 381.882 17.0011 382.173H13.2584C12.7289 381.882 12.279 381.465 11.9481 380.959C11.5272 380.334 11.3033 379.597 11.3055 378.843V362.532L20.8813 323.118L27.0611 297.665L6.10484 198.11C6.00113 197.619 5.99528 197.112 6.08763 196.618C6.17999 196.124 6.36873 195.654 6.64306 195.233C6.9174 194.813 7.27196 194.45 7.68647 194.167C8.10097 193.883 8.56729 193.684 9.05877 193.581C9.55025 193.478 10.0573 193.472 10.5508 193.565C11.0443 193.658 11.5147 193.847 11.935 194.122C12.3554 194.397 12.7174 194.752 13.0005 195.167C13.2836 195.581 13.4821 196.048 13.5848 196.54L32.9554 288.538L33.8477 292.78L34.8876 297.726L34.9031 297.787Z" fill="#292D32"/>
<path d="M103.504 297.726V378.844C103.506 379.597 103.282 380.335 102.861 380.96C102.53 381.465 102.08 381.882 101.551 382.173H97.8032C97.2762 381.88 96.8282 381.464 96.4978 380.96C96.077 380.334 95.8532 379.597 95.8555 378.844V297.726C95.8555 296.712 96.2584 295.739 96.9756 295.022C97.6927 294.305 98.6654 293.902 99.6796 293.902C100.694 293.902 101.667 294.305 102.384 295.022C103.101 295.739 103.504 296.712 103.504 297.726Z" fill="#292D32"/>
<path d="M104.961 297.726H30.9814V295.64C30.9814 293.832 31.3375 292.042 32.0294 290.372C32.7212 288.701 33.7353 287.184 35.0136 285.905C36.292 284.627 37.8097 283.613 39.4799 282.921C41.1502 282.229 42.9404 281.873 44.7483 281.873H91.1941C94.8453 281.873 98.3469 283.323 100.929 285.905C103.511 288.487 104.961 291.989 104.961 295.64L104.961 297.726Z" fill="#292D32"/>
<path d="M99.6767 327.97H25.6972C24.683 327.97 23.7103 327.568 22.9931 326.85C22.276 326.133 21.873 325.16 21.873 324.146C21.873 323.132 22.276 322.159 22.9931 321.442C23.7103 320.725 24.683 320.322 25.6972 320.322H99.6767C100.691 320.322 101.664 320.725 102.381 321.442C103.098 322.159 103.501 323.132 103.501 324.146C103.501 325.16 103.098 326.133 102.381 326.85C101.664 327.568 100.691 327.97 99.6767 327.97Z" fill="#292D32"/>
<path d="M194.753 361.329L186.716 357.485L197.756 323.89L209.619 329.563L194.753 361.329Z" fill="#9E616A"/>
<path d="M249.223 358.286L240.581 360.419L228.059 327.354L240.815 324.207L249.223 358.286Z" fill="#9E616A"/>
<path d="M216.098 215.307C217.244 217.169 219.073 218.509 221.194 219.041C223.315 219.573 225.559 219.255 227.449 218.155C227.829 217.925 228.189 217.664 228.526 217.374L253.937 231.957L252.833 216.987L228.872 205.435C227.568 204.125 225.866 203.285 224.034 203.046C222.201 202.807 220.341 203.184 218.746 204.116C217.827 204.667 217.028 205.397 216.395 206.262C215.763 207.128 215.31 208.111 215.063 209.153C214.817 210.196 214.781 211.278 214.959 212.335C215.137 213.392 215.524 214.402 216.098 215.307Z" fill="#9E616A"/>
<path d="M243.011 226.465L247.503 229.203L267.676 241.504C269.001 242.333 270.476 242.893 272.018 243.152C273.559 243.41 275.137 243.362 276.66 243.011C278.183 242.659 279.621 242.011 280.894 241.103C282.166 240.195 283.247 239.045 284.075 237.719C285.568 235.258 286.097 232.331 285.558 229.503L276.592 184.709C276.261 182.95 275.554 181.284 274.519 179.824C273.485 178.364 272.147 177.145 270.598 176.249C269.049 175.353 267.325 174.803 265.543 174.635C263.762 174.467 261.965 174.686 260.276 175.277C257.436 176.274 255.084 178.316 253.697 180.987C252.31 183.658 251.992 186.757 252.809 189.653L262.184 221.443L247.813 214.743L243.011 226.465Z" fill="#E6E6E6"/>
<path d="M232.391 349.021L218.562 321.284L218.563 321.22L219.929 270.346C219.946 269.893 219.982 269.439 220.038 268.992C220.279 266.952 220.924 264.98 221.935 263.192C222.945 261.404 224.302 259.835 225.926 258.577C227.481 257.36 229.262 256.465 231.167 255.945C233.071 255.424 235.06 255.287 237.018 255.543L276.564 260.661L277.936 255.053L278.191 254.96L316.083 241.073L316.301 241.429C321.264 249.504 324.733 265.633 325.678 270.384L325.692 270.452C325.712 270.552 325.723 270.613 325.728 270.631C327.678 278.738 319.618 292.169 311.589 294.188C294.676 298.498 279.55 295.136 262.036 291.241C255.755 289.845 249.264 288.401 242.115 287.153L242.327 291.361C242.502 294.599 243.174 297.792 244.322 300.825C245.597 304.559 246.604 307.508 244.475 313.657L243.445 316.631C243.979 318.108 244.163 319.688 243.982 321.248C243.801 322.808 243.26 324.305 242.402 325.62L242.195 325.936L251.316 349.015L232.391 349.021Z" fill="#2F2E41"/>
<path d="M209.667 336.754L193.175 335.221L199.018 316.535C200.223 304.334 203.261 292.385 208.029 281.09L215.999 262.203C216.018 261.782 216.053 261.359 216.104 260.945C216.345 258.905 216.99 256.934 218.001 255.146C219.012 253.357 220.369 251.789 221.992 250.53C223.548 249.314 225.329 248.42 227.233 247.899C229.138 247.378 231.126 247.242 233.084 247.497L272.572 252.607L274.292 238.172L312.194 233.1L312.368 233.383C318.992 244.162 323.198 252.6 325.604 259.939C325.725 260.313 325.832 260.695 325.923 261.076C327.887 269.238 322.985 277.513 314.995 279.523C294.632 284.714 270.147 284.57 237.953 279.067L222.373 316.145C220.883 319.687 219.04 323.069 216.869 326.239L209.667 336.754Z" fill="#2F2E41"/>
<path d="M267.195 149.569C277.746 149.569 286.299 140.825 286.299 130.039C286.299 119.253 277.746 110.509 267.195 110.509C256.644 110.509 248.091 119.253 248.091 130.039C248.091 140.825 256.644 149.569 267.195 149.569Z" fill="#9E616A"/>
<path d="M272.711 253.289L269.97 243.469L269.296 238.626L265.356 238.757L257.624 220.909L254.62 216.203C254.008 215.558 253.453 214.938 252.956 214.343C249.827 210.806 247.317 206.765 245.534 202.392C244.285 199.25 243.551 195.927 243.362 192.551C242.801 182.579 247.005 172.029 256.214 160.299C256.063 159.884 255.962 159.452 255.914 159.013C255.749 157.588 256.154 156.156 257.04 155.027C257.926 153.899 259.221 153.167 260.645 152.989L269.527 151.992C270.217 151.913 270.917 151.973 271.584 152.168C272.251 152.362 272.873 152.688 273.414 153.125C273.978 153.577 274.446 154.137 274.792 154.772C275.137 155.407 275.353 156.105 275.427 156.824C275.545 157.937 275.327 159.06 274.798 160.046C279.326 160.621 283.591 162.49 287.083 165.428C290.575 168.366 293.145 172.25 294.485 176.612C299.8 186.533 304.035 196.996 307.12 207.82C307.728 209.94 307.458 212.125 307.196 214.237C306.954 216.188 306.704 218.206 307.124 220.217C307.552 222.263 308.581 224.315 309.671 226.487C310.919 228.976 312.209 231.548 312.558 234.171L312.583 234.355L272.711 253.289Z" fill="#E4E4E4"/>
<path opacity="0.2" d="M245.771 202.296C247.546 206.643 250.041 210.661 253.151 214.179C253.684 214.815 254.247 215.44 254.836 216.066L257.858 220.808C268.998 212.458 278.024 179.58 278.024 179.58L265.454 177.135L245.771 202.296Z" fill="black"/>
<path d="M238.161 151.393C239.262 153.284 239.581 155.529 239.051 157.652C238.522 159.774 237.185 161.607 235.325 162.758C234.943 162.987 234.543 163.183 234.129 163.345L235.019 192.63L222.337 184.647L223.436 158.061C222.897 156.292 222.958 154.394 223.611 152.663C224.263 150.932 225.47 149.467 227.043 148.494C227.96 147.94 228.978 147.575 230.038 147.42C231.098 147.266 232.178 147.326 233.214 147.596C234.251 147.867 235.222 148.342 236.072 148.994C236.922 149.646 237.632 150.462 238.161 151.393Z" fill="#9E616A"/>
<path d="M236.133 181.576L222.187 183.559L222.786 212.44C222.821 214.5 223.382 216.517 224.416 218.3C225.45 220.082 226.922 221.57 228.694 222.623C230.858 223.896 233.377 224.432 235.871 224.149C238.366 223.865 240.701 222.779 242.524 221.053L275.45 189.383C277.767 187.185 279.153 184.184 279.324 180.995C279.495 177.806 278.438 174.673 276.37 172.241C275.347 171.029 274.09 170.036 272.675 169.319C271.261 168.603 269.717 168.177 268.134 168.069C266.552 167.961 264.965 168.171 263.465 168.688C261.966 169.206 260.586 170.018 259.407 171.079C259.082 171.37 258.772 171.678 258.48 172.002L236.739 197.013L236.133 181.576Z" fill="#E6E6E6"/>
<path d="M119.488 369.955L129.387 369.954L134.096 331.772L119.486 331.773L119.488 369.955Z" fill="#FFB6B6"/>
<path d="M63.3802 150.136C74.2918 150.136 83.1374 141.29 83.1374 130.379C83.1374 119.467 74.2918 110.621 63.3802 110.621C52.4686 110.621 43.623 119.467 43.623 130.379C43.623 141.29 52.4686 150.136 63.3802 150.136Z" fill="#FFB6B6"/>
<path d="M132.619 358.193H118.601L115.027 353.402L114.06 348.889L113.227 348.084C112.098 346.999 111.368 345.566 111.155 344.014C110.942 342.463 111.26 340.886 112.056 339.538L101.896 292.138C99.2356 291.904 69.2284 289.221 48.3696 285.53C43.0313 284.585 38.8635 281.99 35.9817 277.817C28.9006 267.563 31.9339 250.971 31.9653 250.805L32.0003 250.62L32.1874 250.599L80.9092 245.13L80.9748 245.161C82.5916 245.927 120.644 263.992 126.863 270.211C129.671 273.019 135.936 289.702 137.338 307.439C137.589 310.617 136.685 313.853 135.811 316.982C134.993 319.91 134.147 322.938 134.314 325.8C134.572 330.217 134.816 334.849 135.041 339.57C135.076 340.322 135.643 341.101 136.191 341.853C136.764 342.64 137.304 343.382 137.339 344.16C137.672 351.698 132.745 358.033 132.695 358.096L132.619 358.193Z" fill="#2F2E41"/>
<path d="M135.81 183.002C134.749 182.712 133.637 182.658 132.553 182.844C131.468 183.03 130.438 183.452 129.534 184.079C128.63 184.707 127.875 185.525 127.321 186.476C126.767 187.427 126.429 188.487 126.33 189.583L109.914 194.714L110.599 205.45L133.68 197.879C135.531 197.924 137.336 197.288 138.75 196.091C140.164 194.894 141.09 193.221 141.353 191.387C141.615 189.553 141.196 187.687 140.175 186.141C139.153 184.596 137.6 183.479 135.81 183.002Z" fill="#FFB6B6"/>
<path d="M125.1 200.768L112.831 205.412L112.517 206.02C111.765 207.48 110.464 208.58 108.901 209.08C107.337 209.58 105.639 209.439 104.18 208.686L76.6028 219.124C76.6028 219.124 64.2875 206.8 55.5195 195.801L58.5078 177.421C59.1999 173.156 60.671 169.056 62.8474 165.323C80.829 169.266 91.1511 194.403 91.1511 194.403L123.558 188.22L125.1 200.768Z" fill="#E2383A"/>
<path d="M60.5723 149.079C55.6261 150.415 50.173 148.639 46.313 145.27C42.453 141.901 40.0384 137.128 38.6471 132.197C37.6282 128.585 37.145 124.577 38.753 121.186C40.3609 117.796 44.6885 115.509 48.0271 117.221C45.9675 114.822 46.9965 110.853 49.402 108.8C51.8074 106.747 55.1105 106.159 58.2564 105.837C62.822 105.37 67.538 105.318 71.8825 106.797C76.227 108.276 80.1744 111.51 81.534 115.893C82.9227 116.54 84.4867 116.708 85.9809 116.37C87.4752 116.033 88.8153 115.209 89.7915 114.029C90.0432 115.385 89.841 116.786 89.2163 118.015C88.5916 119.244 87.5792 120.234 86.3356 120.83L92.9922 118.672C94.137 121.095 92.1311 124.094 89.5659 124.87C87.0007 125.646 84.2317 124.798 81.7975 123.677C79.3632 122.555 77.0042 121.138 74.3602 120.701C71.7161 120.264 68.6102 121.113 67.3872 123.498C66.7466 124.747 66.7132 126.21 66.3413 127.563C65.9694 128.917 65.0272 130.32 63.6279 130.431C62.7439 130.501 61.8783 130.03 60.9967 130.126C59.9037 130.245 59.0672 131.236 58.7761 132.296C58.5566 133.376 58.5539 134.489 58.7682 135.571L60.4591 148.496" fill="#2F2E41"/>
<path d="M36.0945 280.179C36.0907 280.179 36.087 280.178 36.0833 280.177L35.9271 280.151L35.8819 279.999C35.3139 278.088 34.5911 276.133 33.8921 274.241C32.8626 271.622 31.9933 268.942 31.2891 266.217C30.7349 263.612 30.3506 260.974 30.1387 258.319C29.9437 256.392 29.742 254.398 29.3991 252.436C29.2469 251.565 29.8239 250.74 30.3819 249.942C30.8992 249.202 31.388 248.504 31.2854 247.843C31.1805 247.167 30.4309 246.424 29.706 245.706C28.9113 244.919 28.0896 244.105 27.9733 243.249C26.3895 231.562 25.6524 219.776 25.7675 207.983C25.9312 191.667 26.6686 180.545 27.9591 174.927C31.4293 159.821 47.4616 157.064 49.9711 156.724C50.2384 156.012 50.6493 155.363 51.1783 154.816C51.7074 154.27 52.3432 153.839 53.0462 153.549C53.7492 153.259 54.5043 153.117 55.2646 153.131C56.0249 153.146 56.774 153.317 57.4655 153.633L68.8567 158.848C71.1673 159.909 73.235 161.434 74.9313 163.329C76.6275 165.223 77.916 167.446 78.7167 169.86L80.409 175.019L81.2566 209.65L76.5593 234.037L85.7372 247.803C36.8223 274.659 36.252 280.179 36.0945 280.179Z" fill="#E2383A"/>
<path d="M114.162 366.108L117.381 366.107L129.946 360.997L136.681 366.107H136.682C140.488 366.107 144.138 367.619 146.829 370.31C149.52 373.001 151.032 376.651 151.032 380.457V380.923L114.163 380.925L114.162 366.108Z" fill="#2F2E41"/>
<path d="M139.92 207.715C138.972 207.158 137.912 206.816 136.817 206.712C135.721 206.609 134.616 206.747 133.58 207.117C132.544 207.487 131.601 208.08 130.819 208.853C130.036 209.627 129.433 210.563 129.051 211.594L111.865 212.265L109.55 220.27L133.982 221.521C135.758 222.047 137.666 221.903 139.343 221.117C141.021 220.331 142.351 218.957 143.083 217.255C143.815 215.554 143.898 213.642 143.315 211.884C142.732 210.126 141.524 208.642 139.92 207.715Z" fill="#FFB6B6"/>
<path d="M125.804 222.384L108.151 222.164L105.916 222.133L69.9992 221.681C69.9992 221.681 60.2458 212.376 51.7529 202.796L52.9433 194.186C54.1044 185.736 58.2961 177.996 64.7381 172.406C76.9019 180.534 83.9559 196.622 83.9559 196.622L95.7835 201.914C104.107 202.286 112.218 204.662 119.428 208.839L123.317 211.092L125.804 222.384Z" fill="#E2383A"/>
<path d="M255.528 374.573L249.654 376.022L247.237 370.735L245.921 376.944L230.342 380.788C229.595 380.973 228.809 380.913 228.098 380.619C227.387 380.325 226.789 379.812 226.391 379.154C225.993 378.496 225.815 377.727 225.885 376.961C225.954 376.195 226.266 375.472 226.776 374.896L237.097 363.233L235.713 357.627L248.991 355.178L255.528 374.573Z" fill="#2F2E41"/>
<path d="M193.301 376.386L187.7 374.099L188.859 368.403L184.14 372.646L169.283 366.582C168.571 366.291 167.97 365.781 167.569 365.125C167.168 364.468 166.987 363.701 167.052 362.935C167.118 362.168 167.427 361.443 167.934 360.865C168.441 360.286 169.119 359.885 169.87 359.72L185.079 356.369L187.261 351.022L199.436 356.861L193.301 376.386Z" fill="#2F2E41"/>
<path d="M173.794 220.524H169.205C164.271 220.519 159.541 218.556 156.052 215.067C152.563 211.578 150.6 206.848 150.595 201.914V201.659H192.405V201.914C192.4 206.848 190.437 211.578 186.948 215.067C183.459 218.556 178.729 220.519 173.794 220.524Z" fill="#E4E4E4"/>
<path d="M169.206 195.03C169.206 196.297 166.912 197.325 166.912 197.325C166.912 197.325 164.617 196.297 164.617 195.03C164.617 193.763 166.912 192.736 166.912 192.736C166.912 192.736 169.206 193.763 169.206 195.03Z" fill="#292D32"/>
<path d="M182.973 195.03C182.973 196.297 180.678 197.325 180.678 197.325C180.678 197.325 178.384 196.297 178.384 195.03C178.384 193.763 180.678 192.736 180.678 192.736C180.678 192.736 182.973 193.763 182.973 195.03Z" fill="#292D32"/>
<path d="M173.795 199.619C173.795 200.886 171.501 201.914 171.501 201.914C171.501 201.914 169.206 200.886 169.206 199.619C169.206 198.352 171.501 197.325 171.501 197.325C171.501 197.325 173.795 198.352 173.795 199.619Z" fill="#292D32"/>
<path d="M157.733 190.187C159 190.187 160.027 189.159 160.027 187.892C160.027 186.625 159 185.598 157.733 185.598C156.466 185.598 155.438 186.625 155.438 187.892C155.438 189.159 156.466 190.187 157.733 190.187Z" fill="#292D32"/>
<path d="M124.364 182.961L160.552 187.959C160.879 188.004 161.194 188.115 161.477 188.285C161.76 188.455 162.006 188.681 162.2 188.949C162.393 189.217 162.53 189.521 162.603 189.844C162.676 190.166 162.682 190.5 162.622 190.825C162.562 191.15 162.437 191.459 162.254 191.735C162.071 192.01 161.834 192.245 161.558 192.426C161.281 192.608 160.971 192.731 160.646 192.789C160.32 192.847 159.987 192.838 159.665 192.763L124.078 184.509C123.88 184.464 123.708 184.343 123.597 184.174C123.486 184.004 123.444 183.798 123.481 183.599C123.518 183.399 123.63 183.221 123.795 183.103C123.959 182.984 124.163 182.933 124.364 182.961Z" fill="#E4E4E4"/>
<path d="M168.338 68.9428V0H163.749V68.9428C157.479 69.5149 151.65 72.4099 147.405 77.0595C143.159 81.709 140.805 87.7774 140.805 94.0735V100.957H156.866C156.866 103.391 157.833 105.726 159.554 107.447C161.275 109.168 163.61 110.135 166.044 110.135C168.478 110.135 170.812 109.168 172.534 107.447C174.255 105.726 175.222 103.391 175.222 100.957H191.283V94.0735C191.282 87.7775 188.928 81.7091 184.683 77.0595C180.438 72.4099 174.608 69.5149 168.338 68.9428Z" fill="#2F2E41"/>
<path d="M227.422 51.7071V0H223.98V51.7071C219.278 52.1362 214.905 54.3074 211.721 57.7946C208.538 61.2818 206.772 65.8331 206.771 70.5551V75.7177H218.817C218.817 77.5433 219.543 79.2941 220.834 80.585C222.124 81.8759 223.875 82.6011 225.701 82.6011C227.527 82.6011 229.277 81.8759 230.568 80.585C231.859 79.2941 232.584 77.5433 232.584 75.7177H244.63V70.5551C244.63 65.8331 242.864 61.2818 239.68 57.7946C236.497 54.3074 232.124 52.1362 227.422 51.7071Z" fill="#2F2E41"/>
<path d="M111.168 51.7071V0H107.726V51.7071C103.024 52.1362 98.6514 54.3074 95.4675 57.7946C92.2836 61.2818 90.5181 65.8331 90.5176 70.5551V75.7177H102.564C102.564 77.5433 103.289 79.2941 104.58 80.585C105.871 81.8759 107.621 82.6011 109.447 82.6011C111.273 82.6011 113.023 81.8759 114.314 80.585C115.605 79.2941 116.33 77.5433 116.33 75.7177H128.376V70.5551C128.376 65.8331 126.61 61.2818 123.427 57.7946C120.243 54.3074 115.87 52.1362 111.168 51.7071Z" fill="#2F2E41"/>
<path d="M318.315 121.569C315.068 117.782 313.524 112.758 310.928 108.458C308.332 104.158 303.815 100.309 299.042 101.31C295.753 102 293.21 104.903 291.923 108.139C290.636 111.376 290.395 114.945 290.169 118.441C290.249 111.256 285.515 104.29 278.993 101.997C272.472 99.704 264.668 102.262 260.57 108.034C258.782 106.377 256.448 105.433 254.01 105.382C251.573 105.331 249.201 106.176 247.345 107.757C243.68 111.033 242.868 117.268 245.564 121.446C248.259 125.625 254.097 127.181 258.381 124.864L259.895 126.257C259.043 129.239 260.696 132.761 263.475 133.883C265.728 134.793 268.91 134.642 269.753 137.006C270.342 138.659 269.241 140.422 268.069 141.692C266.898 142.962 265.507 144.273 265.366 146.03C265.154 148.681 267.893 150.538 270.384 151.098C276.389 152.446 283.052 149.666 286.513 144.366C286.58 144.264 286.652 144.161 286.731 144.059C288.672 141.576 290.088 138.723 290.89 135.674C291.692 132.625 291.863 129.445 291.395 126.328C291.2 125.103 291.396 124.192 292.241 123.902C295.891 122.648 306.118 125.279 309.212 127.658C312.308 130.036 314.786 133.183 317.767 135.715C320.749 138.247 324.548 140.2 328.333 139.51C331.365 138.958 333.944 136.757 335.678 134.103C337.413 131.448 338.411 128.353 339.306 125.278C332.602 129.151 323.427 127.529 318.315 121.569Z" fill="#2F2E41"/>
</svg>
