<svg width="352" height="311" viewBox="0 0 352 311" fill="none" xmlns="http://www.w3.org/2000/svg">
<path d="M339.359 288.903H265.171C264.34 288.903 263.667 289.577 263.667 290.407C263.667 291.238 264.34 291.911 265.171 291.911H339.359C340.189 291.911 340.862 291.238 340.862 290.407C340.862 289.577 340.189 288.903 339.359 288.903Z" fill="#292D32"/>
<path d="M339.359 233.764H265.171C264.34 233.764 263.667 234.437 263.667 235.268C263.667 236.098 264.34 236.772 265.171 236.772H339.359C340.189 236.772 340.862 236.098 340.862 235.268C340.862 234.437 340.189 233.764 339.359 233.764Z" fill="#292D32"/>
<path d="M339.359 178.624H265.171C264.34 178.624 263.667 179.298 263.667 180.128C263.667 180.959 264.34 181.632 265.171 181.632H339.359C340.189 181.632 340.862 180.959 340.862 180.128C340.862 179.298 340.189 178.624 339.359 178.624Z" fill="#292D32"/>
<path d="M282.715 280.883H266.675C265.014 280.883 263.667 282.23 263.667 283.891C263.667 285.552 265.014 286.898 266.675 286.898H282.715C284.376 286.898 285.723 285.552 285.723 283.891C285.723 282.23 284.376 280.883 282.715 280.883Z" fill="#292D32"/>
<path d="M282.715 225.744H266.675C265.014 225.744 263.667 227.09 263.667 228.751C263.667 230.412 265.014 231.759 266.675 231.759H282.715C284.376 231.759 285.723 230.412 285.723 228.751C285.723 227.09 284.376 225.744 282.715 225.744Z" fill="#292D32"/>
<path d="M282.715 170.604H266.675C265.014 170.604 263.667 171.951 263.667 173.612C263.667 175.273 265.014 176.619 266.675 176.619H282.715C284.376 176.619 285.723 175.273 285.723 173.612C285.723 171.951 284.376 170.604 282.715 170.604Z" fill="#292D32"/>
<path d="M231.094 184.64C230.551 183.044 223.75 177.619 227.918 176.708L231.336 181.249L247.049 165.591L248.629 167.166L231.094 184.64Z" fill="#E2383A"/>
<path d="M231.094 237.774C230.551 236.179 223.75 230.754 227.918 229.842L231.336 234.383L247.049 218.726L248.629 220.301L231.094 237.774Z" fill="#E2383A"/>
<path d="M243.617 298.929H219.556V274.868H235.917V275.811H220.518V297.985H242.654V287.134H243.617V298.929Z" fill="#3F3D56"/>
<path d="M243.617 244.792H219.556V220.731H235.917V221.675H220.518V243.848H242.654V232.997H243.617V244.792Z" fill="#3F3D56"/>
<path d="M243.617 190.655H219.556V165.591H235.917V166.574H220.518V189.672H242.654V178.369H243.617V190.655Z" fill="#3F3D56"/>
<path d="M348.375 172.012V170.674H348.771V172.012C349.331 172.036 349.881 172.17 350.39 172.407C350.759 172.581 351.077 172.846 351.313 173.177C351.532 173.484 351.649 173.852 351.648 174.229C351.656 174.504 351.564 174.773 351.388 174.985C351.313 175.082 351.216 175.16 351.105 175.213C350.995 175.267 350.873 175.294 350.75 175.293C350.659 175.295 350.568 175.278 350.483 175.243C350.398 175.208 350.322 175.156 350.258 175.091C350.192 175.025 350.139 174.947 350.105 174.861C350.07 174.775 350.053 174.682 350.055 174.589C350.056 174.459 350.083 174.33 350.135 174.211L350.293 173.877C350.349 173.737 350.376 173.587 350.372 173.437C350.377 173.204 350.302 172.976 350.161 172.79C350.007 172.596 349.799 172.45 349.563 172.372C349.306 172.288 349.04 172.235 348.771 172.214V177.026L348.859 177.079C349.686 177.516 350.437 178.084 351.085 178.759C351.372 179.098 351.599 179.484 351.758 179.899C351.916 180.301 351.998 180.729 352 181.161C352.007 181.72 351.861 182.271 351.577 182.753C351.301 183.224 350.894 183.606 350.407 183.853C349.894 184.105 349.34 184.265 348.771 184.328V185.762H348.375V184.354C347.801 184.35 347.233 184.233 346.704 184.011C346.175 183.815 345.709 183.481 345.353 183.043C345.04 182.652 344.871 182.164 344.874 181.662C344.863 181.31 344.971 180.964 345.182 180.681C345.265 180.559 345.376 180.459 345.507 180.389C345.637 180.32 345.782 180.283 345.93 180.281C346.018 180.278 346.106 180.293 346.189 180.326C346.271 180.358 346.346 180.407 346.409 180.47C346.471 180.532 346.521 180.607 346.553 180.689C346.586 180.772 346.601 180.86 346.598 180.948C346.568 181.219 346.454 181.474 346.273 181.677C346.178 181.802 346.097 181.938 346.031 182.081C345.985 182.192 345.963 182.311 345.965 182.432C345.966 182.752 346.076 183.063 346.277 183.314C346.496 183.594 346.786 183.811 347.117 183.941C347.495 184.089 347.899 184.16 348.305 184.152H348.375V178.407L347.874 178.117C347.399 177.841 347.036 177.613 346.787 177.431C346.544 177.254 346.318 177.054 346.114 176.832C345.609 176.294 345.329 175.583 345.331 174.844C345.329 174.385 345.444 173.932 345.666 173.529C345.883 173.127 346.201 172.789 346.589 172.548C347.13 172.222 347.744 172.038 348.375 172.012ZM348.375 172.205C348.034 172.216 347.699 172.29 347.385 172.425C347.072 172.58 346.815 172.828 346.65 173.136C346.461 173.471 346.364 173.849 346.369 174.233C346.366 174.702 346.51 175.16 346.781 175.542C346.925 175.75 347.097 175.936 347.293 176.095C347.611 176.332 347.943 176.549 348.288 176.745L348.375 176.797V172.205ZM348.771 184.134C348.998 184.115 349.222 184.068 349.437 183.994C349.611 183.926 349.774 183.831 349.918 183.712C350.19 183.481 350.4 183.186 350.532 182.854C350.684 182.488 350.762 182.095 350.759 181.697C350.724 181.06 350.522 180.443 350.173 179.909C349.824 179.375 349.341 178.942 348.771 178.654V184.134Z" fill="#292D32"/>
<path d="M348.375 226.078V224.741H348.771V226.078C349.331 226.102 349.881 226.237 350.39 226.474C350.759 226.647 351.077 226.912 351.313 227.244C351.532 227.551 351.649 227.918 351.648 228.295C351.656 228.57 351.564 228.839 351.388 229.051C351.313 229.148 351.216 229.226 351.105 229.28C350.995 229.333 350.873 229.36 350.75 229.359C350.659 229.361 350.568 229.344 350.483 229.309C350.398 229.275 350.322 229.223 350.258 229.157C350.192 229.092 350.139 229.014 350.105 228.927C350.07 228.841 350.053 228.749 350.055 228.656C350.056 228.525 350.083 228.397 350.135 228.277L350.293 227.943C350.349 227.803 350.376 227.654 350.372 227.503C350.377 227.27 350.302 227.042 350.161 226.857C350.007 226.662 349.799 226.517 349.563 226.439C349.306 226.354 349.04 226.301 348.771 226.28V231.092L348.859 231.145C349.686 231.583 350.437 232.15 351.085 232.826C351.372 233.165 351.599 233.55 351.758 233.965C351.916 234.367 351.998 234.795 352 235.227C352.007 235.787 351.861 236.337 351.577 236.82C351.301 237.29 350.894 237.672 350.407 237.919C349.894 238.171 349.34 238.332 348.771 238.394V239.828H348.375V238.421C347.801 238.416 347.233 238.3 346.704 238.078C346.175 237.881 345.709 237.547 345.353 237.11C345.04 236.718 344.871 236.23 344.874 235.729C344.863 235.376 344.971 235.031 345.182 234.748C345.265 234.626 345.376 234.526 345.507 234.456C345.637 234.386 345.782 234.349 345.93 234.347C346.018 234.344 346.106 234.36 346.189 234.392C346.271 234.424 346.346 234.473 346.409 234.536C346.471 234.598 346.521 234.673 346.553 234.756C346.586 234.838 346.601 234.926 346.598 235.015C346.568 235.286 346.454 235.54 346.273 235.743C346.178 235.869 346.097 236.004 346.031 236.147C345.985 236.258 345.963 236.378 345.965 236.498C345.966 236.819 346.076 237.13 346.277 237.38C346.496 237.66 346.786 237.877 347.117 238.008C347.495 238.155 347.899 238.227 348.305 238.218H348.375V232.474L347.874 232.183C347.399 231.908 347.036 231.679 346.787 231.497C346.544 231.321 346.318 231.12 346.114 230.899C345.609 230.361 345.329 229.649 345.331 228.911C345.329 228.451 345.444 227.998 345.666 227.596C345.883 227.194 346.201 226.856 346.589 226.615C347.13 226.289 347.744 226.104 348.375 226.078ZM348.375 226.271C348.034 226.282 347.699 226.357 347.385 226.491C347.072 226.646 346.815 226.895 346.65 227.202C346.461 227.537 346.364 227.916 346.369 228.3C346.366 228.768 346.51 229.226 346.781 229.608C346.925 229.816 347.097 230.002 347.293 230.161C347.611 230.398 347.943 230.615 348.288 230.811L348.375 230.864V226.271ZM348.771 238.201C348.998 238.182 349.222 238.135 349.437 238.06C349.611 237.992 349.774 237.897 349.918 237.779C350.19 237.547 350.4 237.253 350.532 236.921C350.684 236.554 350.762 236.161 350.759 235.764C350.724 235.127 350.522 234.51 350.173 233.975C349.824 233.441 349.341 233.008 348.771 232.72V238.201Z" fill="#292D32"/>
<path d="M348.375 280.144V278.807H348.771V280.144C349.331 280.169 349.881 280.303 350.39 280.54C350.759 280.713 351.077 280.979 351.313 281.31C351.532 281.617 351.649 281.985 351.648 282.361C351.656 282.637 351.564 282.906 351.388 283.118C351.313 283.215 351.216 283.293 351.105 283.346C350.995 283.399 350.873 283.427 350.75 283.426C350.659 283.428 350.568 283.411 350.483 283.376C350.398 283.341 350.322 283.289 350.258 283.223C350.192 283.158 350.139 283.08 350.105 282.994C350.07 282.907 350.053 282.815 350.055 282.722C350.056 282.592 350.083 282.463 350.135 282.344L350.293 282.009C350.349 281.87 350.376 281.72 350.372 281.57C350.377 281.336 350.302 281.109 350.161 280.923C350.007 280.728 349.799 280.583 349.563 280.505C349.306 280.421 349.04 280.368 348.771 280.347V285.159L348.859 285.212C349.686 285.649 350.437 286.217 351.085 286.892C351.372 287.231 351.599 287.616 351.758 288.031C351.916 288.433 351.998 288.862 352 289.294C352.007 289.853 351.861 290.404 351.577 290.886C351.301 291.357 350.894 291.738 350.407 291.986C349.894 292.238 349.34 292.398 348.771 292.461V293.895H348.375V292.487C347.801 292.483 347.233 292.366 346.704 292.144C346.175 291.948 345.709 291.613 345.353 291.176C345.04 290.784 344.871 290.297 344.874 289.795C344.863 289.443 344.971 289.097 345.182 288.814C345.265 288.692 345.376 288.592 345.507 288.522C345.637 288.453 345.782 288.415 345.93 288.414C346.018 288.411 346.106 288.426 346.189 288.458C346.271 288.491 346.346 288.54 346.409 288.602C346.471 288.665 346.521 288.74 346.553 288.822C346.586 288.904 346.601 288.993 346.598 289.081C346.568 289.352 346.454 289.607 346.273 289.81C346.178 289.935 346.097 290.071 346.031 290.213C345.985 290.325 345.963 290.444 345.965 290.564C345.966 290.885 346.076 291.196 346.277 291.446C346.496 291.727 346.786 291.943 347.117 292.074C347.495 292.221 347.899 292.293 348.305 292.285H348.375V286.54L347.874 286.25C347.399 285.974 347.036 285.745 346.787 285.564C346.544 285.387 346.318 285.187 346.114 284.965C345.609 284.427 345.329 283.716 345.331 282.977C345.329 282.517 345.444 282.065 345.666 281.662C345.883 281.26 346.201 280.922 346.589 280.681C347.13 280.355 347.744 280.17 348.375 280.144ZM348.375 280.338C348.034 280.348 347.699 280.423 347.385 280.558C347.072 280.713 346.815 280.961 346.65 281.269C346.461 281.603 346.364 281.982 346.369 282.366C346.366 282.835 346.51 283.292 346.781 283.674C346.925 283.882 347.097 284.069 347.293 284.228C347.611 284.465 347.943 284.682 348.288 284.877L348.375 284.93V280.338ZM348.771 292.267C348.998 292.248 349.222 292.201 349.437 292.126C349.611 292.059 349.774 291.964 349.918 291.845C350.19 291.614 350.4 291.319 350.532 290.987C350.684 290.621 350.762 290.227 350.759 289.83C350.724 289.193 350.522 288.576 350.173 288.042C349.824 287.507 349.341 287.074 348.771 286.786V292.267Z" fill="#292D32"/>
<path d="M231.11 91.4219C230.103 91.3481 229.092 91.4992 228.148 91.8645C227.205 92.2298 226.351 92.8006 225.649 93.5365C224.946 94.2724 224.411 95.1556 224.081 96.1239C223.752 97.0921 223.636 98.1219 223.741 99.1407L201.51 109.71L212.391 116.467L231.834 105.394C233.51 105.101 235.021 104.195 236.083 102.848C237.144 101.5 237.681 99.8045 237.592 98.0822C237.502 96.36 236.793 94.7307 235.599 93.5032C234.404 92.2756 232.807 91.5351 231.11 91.4219Z" fill="#FFB6B6"/>
<path d="M139.354 291.911L146.826 291.911L150.38 261.835L139.353 261.836L139.354 291.911Z" fill="#FFB6B6"/>
<path d="M137.348 288.904L152.655 288.904H152.656C155.243 288.904 157.724 289.927 159.554 291.747C161.383 293.568 162.411 296.038 162.411 298.613V298.928L137.348 298.929L137.348 288.904Z" fill="#292D32"/>
<path d="M178.453 291.911L185.925 291.911L189.48 261.835L178.452 261.836L178.453 291.911Z" fill="#FFB6B6"/>
<path d="M176.446 288.904L191.754 288.904H191.755C194.342 288.904 196.823 289.927 198.652 291.747C200.482 293.568 201.51 296.038 201.51 298.613V298.928L176.447 298.929L176.446 288.904Z" fill="#292D32"/>
<path d="M183.53 138.523L187.441 146.882L194.493 221.64L189.011 285.896H176.191L161.063 184.614L153.957 283.563L136.659 282.87L133.338 148.717L183.53 138.523Z" fill="#292D32"/>
<path d="M121.825 68.8889L137.896 62.3302L160.58 63.6063L180.746 70.9781L187.475 146.347C169.93 155.957 152.159 158.58 134.078 151.708L117.297 102.619L121.825 68.8889Z" fill="#E2383A"/>
<path d="M174.065 72.9306L181.259 70.9237C181.259 70.9237 186.7 67.3801 188.491 77.914C190.281 88.448 199.493 104.833 199.493 104.833L215.262 96.4154L222.563 112.385L197.659 127.495L171.434 101.028L174.065 72.9306Z" fill="#E2383A"/>
<path d="M135.262 151.55C135.116 150.548 134.753 149.59 134.201 148.745C133.648 147.899 132.918 147.186 132.063 146.656C131.207 146.126 130.247 145.792 129.25 145.677C128.253 145.561 127.243 145.668 126.291 145.99L111.391 126.493L107.271 138.593L122.052 155.253C122.693 156.831 123.886 158.117 125.404 158.866C126.921 159.616 128.659 159.779 130.287 159.322C131.915 158.866 133.321 157.822 134.238 156.39C135.155 154.957 135.519 153.235 135.262 151.55Z" fill="#FFB6B6"/>
<path d="M126.32 73.0364L121.189 69.3581C121.189 69.3581 109.451 68.6773 107.743 78.4347L86.2188 114.282L112.906 151.556L125.845 137.767L109.519 118.452L123.226 92.9722L126.32 73.0364Z" fill="#E2383A"/>
<path d="M243.617 88.9525H243.418V83.52C243.418 83.1071 243.337 82.6983 243.178 82.3168C243.02 81.9353 242.787 81.5887 242.495 81.2967C242.202 81.0048 241.854 80.7732 241.472 80.6152C241.089 80.4572 240.679 80.3759 240.265 80.3759H228.724C228.31 80.3759 227.9 80.4572 227.518 80.6152C227.135 80.7732 226.788 81.0048 226.495 81.2967C226.202 81.5887 225.97 81.9353 225.811 82.3168C225.653 82.6983 225.571 83.1071 225.571 83.52V113.323C225.571 113.736 225.653 114.145 225.811 114.526C225.97 114.908 226.202 115.254 226.495 115.546C226.788 115.838 227.135 116.07 227.518 116.228C227.9 116.386 228.31 116.467 228.724 116.467H240.265C240.679 116.467 241.089 116.386 241.472 116.228C241.854 116.07 242.202 115.838 242.495 115.546C242.787 115.254 243.02 114.908 243.178 114.526C243.337 114.145 243.418 113.736 243.418 113.323V92.8194H243.617V88.9525Z" fill="#3F3D56"/>
<path d="M240.298 81.3784H238.816C238.884 81.546 238.91 81.7278 238.891 81.9078C238.873 82.0879 238.811 82.2606 238.71 82.4108C238.609 82.561 238.473 82.6841 238.314 82.7692C238.155 82.8543 237.977 82.8988 237.797 82.8988H231.293C231.112 82.8988 230.934 82.8543 230.775 82.7692C230.616 82.6841 230.48 82.561 230.379 82.4108C230.279 82.2606 230.216 82.0878 230.198 81.9078C230.179 81.7278 230.206 81.546 230.274 81.3784H228.889C228.275 81.3784 227.686 81.6231 227.252 82.0588C226.817 82.4944 226.573 83.0852 226.573 83.7013V113.142C226.573 113.758 226.817 114.349 227.252 114.784C227.686 115.22 228.275 115.465 228.889 115.465H240.298C240.912 115.465 241.501 115.22 241.935 114.784C242.37 114.349 242.614 113.758 242.614 113.142V83.7013C242.614 83.0852 242.37 82.4944 241.935 82.0588C241.501 81.6231 240.912 81.3784 240.298 81.3784Z" fill="#E6E6E6"/>
<path d="M152.055 57.9085C162.995 57.9085 171.863 49.0404 171.863 38.1011C171.863 27.1619 162.995 18.2938 152.055 18.2938C141.116 18.2938 132.248 27.1619 132.248 38.1011C132.248 49.0404 141.116 57.9085 152.055 57.9085Z" fill="#FFB6B6"/>
<path d="M149.241 56.85C144.282 58.1893 138.815 56.4087 134.945 53.0313C131.075 49.6538 128.655 44.868 127.26 39.9246C126.238 36.3041 125.754 32.2852 127.366 28.8863C128.978 25.4874 133.317 23.1943 136.664 24.9112C134.599 22.5055 135.63 18.5266 138.042 16.4686C140.454 14.4106 143.765 13.8205 146.919 13.498C151.496 13.0299 156.224 12.9775 160.58 14.4604C164.935 15.9432 168.892 19.1852 170.256 23.5797C171.648 24.2279 173.216 24.3961 174.714 24.0578C176.212 23.7196 177.555 22.8941 178.534 21.7106C178.786 23.0699 178.584 24.4744 177.957 25.7069C177.331 26.9394 176.316 27.9311 175.069 28.5287L181.743 26.3651C182.891 28.7944 180.88 31.8011 178.308 32.579C175.736 33.3569 172.96 32.5066 170.52 31.3827C168.079 30.2588 165.714 28.8378 163.064 28.3995C160.413 27.9611 157.299 28.8129 156.073 31.2036C155.431 32.4557 155.397 33.9222 155.024 35.2792C154.651 36.6361 153.707 38.043 152.304 38.154C151.418 38.2242 150.55 37.7521 149.666 37.8486C148.57 37.9683 147.732 38.9609 147.44 40.0238C147.22 41.107 147.217 42.2231 147.432 43.3073L149.127 56.2647" fill="#2F2E41"/>
<path d="M108.725 104.994C108.725 104.994 102.351 132.508 110.142 132.508C117.932 132.508 136.346 101.373 136.346 101.373L129.972 93.4088L118.531 109.648L117.932 101.373L108.725 104.994Z" fill="#A0616A"/>
<path d="M134.34 102.432C137.663 102.432 140.356 99.7386 140.356 96.4165C140.356 93.0944 137.663 90.4012 134.34 90.4012C131.018 90.4012 128.325 93.0944 128.325 96.4165C128.325 99.7386 131.018 102.432 134.34 102.432Z" fill="#A0616A"/>
<path d="M103.264 289.906L111.414 289.906L115.292 257.825L103.262 257.825L103.264 289.906Z" fill="#A0616A"/>
<path d="M13.0332 280.101L20.403 283.891L38.0966 256.401L27.2192 250.807L13.0332 280.101Z" fill="#A0616A"/>
<path d="M48.7168 153.856C48.7168 153.856 45.3666 194.042 44.6473 202.653C44.1541 208.051 42.9447 213.359 41.0508 218.44C41.0508 218.44 39.6122 221.31 39.6122 224.18L23.3079 253.741C23.3079 253.741 18.3256 257.395 19.0449 260.265C19.7642 263.135 16.041 264.857 16.041 264.857L33.211 268.158C33.211 268.158 32.4916 266.006 34.6496 265.288C36.8075 264.57 38.5252 258.346 38.5252 258.346L62.63 219.157L79.8934 183.278C79.8934 183.278 89.9637 215.569 92.1216 219.157C92.1216 219.157 100.034 259.342 101.473 262.93C102.911 266.518 103.63 266.518 102.911 267.954C102.192 269.389 102.192 270.824 102.911 271.542C103.63 272.259 117.297 271.542 117.297 271.542L113.701 220.593L107.227 159.597L74.1389 149.551L48.7168 153.856Z" fill="#292D32"/>
<path d="M108.274 80.0198L90.4496 69.1626C90.4496 69.1626 89.9555 62.4205 84.8768 62.1033C82.327 61.944 78.5007 61.7005 72.7587 61.3283C71.5452 61.2497 70.7263 67.9243 69.3356 67.8337L50.5202 72.8515L53.3723 121.596C53.3723 121.596 49.0942 140.95 50.5202 144.534C51.9462 148.118 46.9552 149.552 48.3812 150.269C49.8072 150.986 48.3812 156.004 48.3812 156.004C48.3812 156.004 76.1887 170.34 106.848 159.588L103.996 150.269C104.384 149.051 104.457 147.753 104.208 146.499C103.958 145.245 103.395 144.075 102.57 143.101C102.57 143.101 105.422 138.8 101.857 135.215C101.857 135.215 103.283 128.764 99.7181 125.897L99.0051 115.861L101.144 110.843L108.274 80.0198Z" fill="#E6E6E6"/>
<path d="M100.579 81.5314L107.606 80.3759C112.669 85.2985 116.117 91.6743 117.486 98.6428C119.6 110.05 120.304 112.189 120.304 112.189L103.397 116.467L94.2383 98.6428L100.579 81.5314Z" fill="#E6E6E6"/>
<path d="M39.6312 100.687C39.6312 100.687 33.0448 127.495 41.0949 127.495C49.1449 127.495 68.1724 97.1591 68.1724 97.1591L61.5859 89.3987L49.764 105.221L49.1449 97.1591L39.6312 100.687Z" fill="#A0616A"/>
<path d="M66.1676 98.4215C69.4897 98.4215 72.1828 95.504 72.1828 91.905C72.1828 88.3061 69.4897 85.3885 66.1676 85.3885C62.8455 85.3885 60.1523 88.3061 60.1523 91.905C60.1523 95.504 62.8455 98.4215 66.1676 98.4215Z" fill="#A0616A"/>
<path d="M56.1424 77.6836L51.8114 73.358C51.8114 73.358 43.1495 78.4045 42.4276 83.451C41.7058 88.4975 38.0967 104.358 38.0967 104.358L51.4505 105.439L55.7814 98.9509L56.1424 77.6836Z" fill="#E6E6E6"/>
<path d="M146.371 82.9372H146.172V77.5048C146.172 77.0919 146.09 76.683 145.932 76.3015C145.774 75.9201 145.541 75.5735 145.249 75.2815C144.956 74.9895 144.608 74.7579 144.226 74.5999C143.843 74.4419 143.433 74.3606 143.019 74.3606H131.478C131.064 74.3606 130.654 74.4419 130.271 74.5999C129.889 74.7579 129.541 74.9895 129.249 75.2815C128.956 75.5735 128.724 75.9201 128.565 76.3015C128.407 76.683 128.325 77.0919 128.325 77.5048V107.308C128.325 107.721 128.407 108.13 128.565 108.511C128.724 108.892 128.956 109.239 129.249 109.531C129.541 109.823 129.889 110.055 130.271 110.213C130.654 110.371 131.064 110.452 131.478 110.452H143.019C143.433 110.452 143.843 110.371 144.226 110.213C144.608 110.055 144.956 109.823 145.249 109.531C145.541 109.239 145.774 108.892 145.932 108.511C146.09 108.13 146.172 107.721 146.172 107.308V86.8042H146.371V82.9372Z" fill="#3F3D56"/>
<rect x="129.327" y="75.3632" width="16.0406" height="34.0863" rx="2" fill="#FBF9F3"/>
<path d="M75.4255 61.1275C65.0265 59.1914 58.201 49.004 60.1803 38.3733C62.1595 27.7426 72.194 20.6943 82.5929 22.6304C92.9919 24.5665 99.8174 34.7539 97.8381 45.3845C95.8589 56.0152 85.8244 63.0635 75.4255 61.1275Z" fill="#9E616A"/>
<path d="M30.179 24.1503C34.0744 21.0139 36.518 16.3453 39.8656 12.5834C43.2133 8.82154 48.372 5.85724 52.8921 7.71927C56.0079 9.0029 57.9811 12.3306 58.6558 15.7568C59.3303 19.1828 58.9131 22.7449 58.4938 26.2325C59.7338 19.1357 65.678 13.1387 72.5263 12.0755C79.3741 11.0123 86.5968 14.9651 89.5762 21.4068C91.6428 20.1014 94.1165 19.5996 96.5285 19.9964C98.9404 20.3933 101.123 21.6613 102.662 23.5601C105.674 27.4614 105.329 33.7556 101.905 37.3793C98.4819 41.003 92.4426 41.4659 88.6458 38.3958L86.8975 39.4909C87.1906 42.586 84.915 45.7538 81.9701 46.3501C79.5821 46.8337 76.4744 46.1006 75.2094 48.2766C74.3253 49.797 75.0873 51.7374 76.009 53.2039C76.9306 54.6702 78.0609 56.2178 77.8771 57.9754C77.6002 60.6273 74.5593 61.955 72.002 62.0492C65.8359 62.2766 59.7791 58.3131 57.3403 52.4547C57.2932 52.3418 57.2405 52.2276 57.1821 52.1123C55.7239 49.3084 54.8527 46.2366 54.6217 43.0847C54.3907 39.9328 54.8048 36.7668 55.8386 33.7803C56.2553 32.6088 56.2291 31.6749 55.45 31.234C52.0825 29.3285 41.5203 30.0455 38.0336 31.8216C34.5466 33.5977 31.5262 36.245 28.1234 38.1933C24.7204 40.1415 20.6178 41.3692 17.0135 39.9951C14.1268 38.8945 11.9888 36.252 10.7661 33.3171C9.5437 30.3823 9.12757 27.1491 8.81049 23.9539C14.7073 29.001 24.0476 29.0869 30.179 24.1503Z" fill="#2F2E41"/>
<path d="M100.994 298.981L107.059 298.952L108.114 293.22L110.915 298.933L127.001 298.855C127.772 298.851 128.522 298.601 129.141 298.141C129.76 297.681 130.216 297.036 130.442 296.298C130.667 295.561 130.652 294.771 130.397 294.043C130.142 293.315 129.661 292.688 129.024 292.253L116.135 283.443L116.107 277.654L102.599 278.526L100.994 298.981Z" fill="#292D32"/>
<path d="M4.78036 293.49L10.5876 295.241L13.2772 290.07L14.2789 296.354L29.6811 300.998C30.4194 301.22 31.2094 301.201 31.936 300.943C32.6626 300.685 33.2877 300.201 33.7199 299.562C34.1521 298.924 34.3689 298.164 34.3386 297.393C34.3083 296.623 34.0324 295.882 33.5514 295.279L23.8129 283.076L25.4841 277.533L12.3142 274.405L4.78036 293.49Z" fill="#292D32"/>
<circle cx="137.347" cy="77.3683" r="1.00254" fill="#3F3D56"/>
</svg>
