<svg width="352" height="366" viewBox="0 0 352 366" fill="none" xmlns="http://www.w3.org/2000/svg">
<path d="M65.563 71.4445H23.6766C18.2783 71.4445 13.8818 67.0534 13.8818 61.6497V19.7633C13.8818 14.365 18.273 9.96851 23.6766 9.96851H65.563C70.9614 9.96851 75.3578 14.3596 75.3578 19.7633V61.6497C75.3578 67.048 70.9667 71.4445 65.563 71.4445ZM23.6766 11.0343C18.8645 11.0343 14.9476 14.9512 14.9476 19.7633V61.6497C14.9476 66.4618 18.8645 70.3787 23.6766 70.3787H65.563C70.3752 70.3787 74.292 66.4618 74.292 61.6497V19.7633C74.292 14.9512 70.3752 11.0343 65.563 11.0343H23.6766Z" fill="#CCCCCC"/>
<path d="M249 71.4445H207.113C201.715 71.4445 197.318 67.0534 197.318 61.6497V19.7633C197.318 14.365 201.71 9.96851 207.113 9.96851H249C254.398 9.96851 258.794 14.3596 258.794 19.7633V61.6497C258.794 67.048 254.403 71.4445 249 71.4445ZM207.113 11.0343C202.301 11.0343 198.384 14.9512 198.384 19.7633V61.6497C198.384 66.4618 202.301 70.3787 207.113 70.3787H249C253.812 70.3787 257.729 66.4618 257.729 61.6497V19.7633C257.729 14.9512 253.812 11.0343 249 11.0343H207.113Z" fill="#CCCCCC"/>
<path d="M74.8621 24.8417C81.7073 24.8417 87.2565 19.2925 87.2565 12.4473C87.2565 5.60212 81.7073 0.0529785 74.8621 0.0529785C68.0169 0.0529785 62.4678 5.60212 62.4678 12.4473C62.4678 19.2925 68.0169 24.8417 74.8621 24.8417Z" fill="#E2383A"/>
<path d="M258.299 24.8417C265.144 24.8417 270.693 19.2925 270.693 12.4473C270.693 5.60212 265.144 0.0529785 258.299 0.0529785C251.453 0.0529785 245.904 5.60212 245.904 12.4473C245.904 19.2925 251.453 24.8417 258.299 24.8417Z" fill="#E2383A"/>
<path d="M58.9622 84.3346H34.2439C32.3092 84.3346 30.7383 82.7795 30.7383 80.8642C30.7383 78.949 32.3092 77.3938 34.2439 77.3938H58.9622C60.8969 77.3938 62.4678 78.949 62.4678 80.8642C62.4678 82.7795 60.8969 84.3346 58.9622 84.3346Z" fill="#E6E6E6"/>
<path d="M242.399 84.3346H217.68C215.746 84.3346 214.175 82.7795 214.175 80.8642C214.175 78.949 215.746 77.3938 217.68 77.3938H242.399C244.333 77.3938 245.904 78.949 245.904 80.8642C245.904 82.7795 244.333 84.3346 242.399 84.3346Z" fill="#E6E6E6"/>
<path d="M65.563 187.456H23.6766C18.2783 187.456 13.8818 183.064 13.8818 177.661V135.774C13.8818 130.376 18.273 125.98 23.6766 125.98H65.563C70.9614 125.98 75.3578 130.371 75.3578 135.774V177.661C75.3578 183.059 70.9667 187.456 65.563 187.456ZM23.6766 127.045C18.8645 127.045 14.9476 130.962 14.9476 135.774V177.661C14.9476 182.473 18.8645 186.39 23.6766 186.39H65.563C70.3752 186.39 74.292 182.473 74.292 177.661V135.774C74.292 130.962 70.3752 127.045 65.563 127.045H23.6766Z" fill="#CCCCCC"/>
<path d="M58.9622 200.346H34.2439C32.3092 200.346 30.7383 198.791 30.7383 196.875C30.7383 194.96 32.3092 193.405 34.2439 193.405H58.9622C60.8969 193.405 62.4678 194.96 62.4678 196.875C62.4678 198.791 60.8969 200.346 58.9622 200.346Z" fill="#E6E6E6"/>
<path d="M157.619 71.4445H115.057C109.572 71.4445 105.104 67.0534 105.104 61.6497V19.7633C105.104 14.365 109.566 9.96851 115.057 9.96851H157.619C163.105 9.96851 167.572 14.3596 167.572 19.7633V61.6497C167.572 67.048 163.11 71.4445 157.619 71.4445ZM115.057 11.0343C110.168 11.0343 106.187 14.9512 106.187 19.7633V61.6497C106.187 66.4618 110.168 70.3787 115.057 70.3787H157.619C162.509 70.3787 166.489 66.4618 166.489 61.6497V19.7633C166.489 14.9512 162.509 11.0343 157.619 11.0343H115.057Z" fill="#CCCCCC"/>
<path d="M341.056 71.4445H298.494C293.008 71.4445 288.541 67.0534 288.541 61.6497V19.7633C288.541 14.365 293.003 9.96851 298.494 9.96851H341.056C346.541 9.96851 351.009 14.3596 351.009 19.7633V61.6497C351.009 67.048 346.547 71.4445 341.056 71.4445ZM298.494 11.0343C293.604 11.0343 289.624 14.9512 289.624 19.7633V61.6497C289.624 66.4618 293.604 70.3787 298.494 70.3787H341.056C345.946 70.3787 349.926 66.4618 349.926 61.6497V19.7633C349.926 14.9512 345.946 11.0343 341.056 11.0343H298.494Z" fill="#CCCCCC"/>
<path d="M150.185 84.3346H125.467C123.532 84.3346 121.961 82.7795 121.961 80.8642C121.961 78.949 123.532 77.3938 125.467 77.3938H150.185C152.12 77.3938 153.69 78.949 153.69 80.8642C153.69 82.7795 152.12 84.3346 150.185 84.3346Z" fill="#E6E6E6"/>
<path d="M333.62 84.3346H308.902C306.967 84.3346 305.396 82.7795 305.396 80.8642C305.396 78.949 306.967 77.3938 308.902 77.3938H333.62C335.555 77.3938 337.126 78.949 337.126 80.8642C337.126 82.7795 335.555 84.3346 333.62 84.3346Z" fill="#E6E6E6"/>
<path d="M78.4188 236.307C80.1091 236.307 81.4793 234.937 81.4793 233.247C81.4793 231.557 80.1091 230.187 78.4188 230.187C76.7286 230.187 75.3584 231.557 75.3584 233.247C75.3584 234.937 76.7286 236.307 78.4188 236.307Z" fill="#E2383A"/>
<path d="M87.493 236.307C89.1833 236.307 90.5535 234.937 90.5535 233.247C90.5535 231.557 89.1833 230.187 87.493 230.187C85.8028 230.187 84.4326 231.557 84.4326 233.247C84.4326 234.937 85.8028 236.307 87.493 236.307Z" fill="#E6E6E6"/>
<path d="M96.5673 236.307C98.2575 236.307 99.6277 234.937 99.6277 233.247C99.6277 231.557 98.2575 230.187 96.5673 230.187C94.877 230.187 93.5068 231.557 93.5068 233.247C93.5068 234.937 94.877 236.307 96.5673 236.307Z" fill="#E6E6E6"/>
<path d="M219.132 244.965H42.6366C19.0891 244.965 0 264.054 0 287.602C0 311.15 19.0891 330.239 42.6366 330.239H219.132C242.68 330.239 261.769 311.15 261.769 287.602C261.769 264.054 242.68 244.965 219.132 244.965Z" fill="url(#paint0_linear_2514_4684)"/>
<path d="M237.78 156.665L239.955 143.619L225.274 137.878L223.099 157.709L237.78 156.665Z" fill="#A0616A"/>
<path d="M275.181 240.007C279.912 243.102 285.344 243.169 287.313 240.158C289.282 237.146 287.042 232.197 282.309 229.102C280.435 227.84 278.286 227.045 276.042 226.783L255.828 213.924L249.996 223.538L270.542 235.194C271.682 237.146 273.272 238.796 275.181 240.007Z" fill="#A0616A"/>
<path d="M229.963 159.128C222.554 159.736 217.398 166.762 219.041 174.013L227.474 211.238L266.29 233.93L271.067 221.788L244.593 202.081L243.176 170.759C242.863 163.839 236.867 158.561 229.963 159.128Z" fill="#E6E6E6"/>
<path d="M303.17 291.297L311.39 303.593L312.92 307.445L317.427 310.295L334.523 302.358L330.819 294.248L319.72 294.98L315.159 287.983L303.17 291.297Z" fill="#A0616A"/>
<path d="M331.595 300.147L331.425 301.841L311.704 307.144C311.704 307.144 316.97 314.152 317.851 315.61C318.731 317.069 346.437 300.338 350.253 297.237C354.07 294.137 350.442 291.154 350.442 291.154L328.211 293.41L331.595 300.147Z" fill="#2F2E43"/>
<path d="M211.801 222.295L209.596 227.507C209.596 227.507 204.784 242.343 229.445 247.555C254.106 252.768 266.938 250.562 266.938 250.562L309.443 301.484L320.27 292.061L286.406 240.724C284.181 237.35 280.92 234.792 277.114 233.433L226.101 215.219L211.801 222.295Z" fill="#2F2E41"/>
<path d="M276.744 312.711L282.153 326.476L282.827 330.566L286.623 334.311L305.018 330.202L303.129 321.488L292.129 319.838L289.164 312.029L276.744 312.711Z" fill="#A0616A"/>
<path d="M302.63 327.417L302.102 329.037L281.704 330.013C281.704 330.013 285.355 337.983 285.904 339.595C286.454 341.208 317.089 330.769 321.479 328.553C325.869 326.337 322.96 322.649 322.96 322.649L300.76 320.114L302.63 327.417Z" fill="#2F2E43"/>
<path d="M200.821 222.16L197.605 226.781C197.605 226.781 189.861 240.247 212.491 250.595C235.121 260.942 247.929 261.523 247.929 261.523L278.129 320.323L290.523 313.427L266.516 250.255L243.115 228.453L200.821 222.16Z" fill="#2F2E41"/>
<path d="M240.946 152.835L222.9 146.802L205.899 165.67C200.613 171.536 197.537 179.106 197.213 187.045L195.335 233.067L240.351 224.822C240.351 224.822 240.946 152.835 240.946 152.835Z" fill="#E6E6E6"/>
<path d="M259.247 243.526C263.979 246.621 269.411 246.688 271.38 243.677C273.348 240.665 271.109 235.716 266.375 232.621C264.501 231.359 262.352 230.564 260.108 230.302L239.895 217.443L234.062 227.058L254.608 238.713C255.748 240.665 257.339 242.316 259.247 243.526Z" fill="#A0616A"/>
<path d="M214.03 162.647C206.62 163.255 201.464 170.281 203.107 177.532L211.541 214.757L250.357 237.449L255.134 225.307L228.66 205.6L227.242 174.278C226.929 167.358 220.934 162.08 214.03 162.647Z" fill="#E6E6E6"/>
<path d="M233.51 149.777C242.546 149.777 249.871 142.452 249.871 133.416C249.871 124.381 242.546 117.056 233.51 117.056C224.474 117.056 217.149 124.381 217.149 133.416C217.149 142.452 224.474 149.777 233.51 149.777Z" fill="#A0616A"/>
<path d="M241.112 112.774C244.597 114.018 246.592 114.729 248.419 116.516C251.504 119.534 252.013 123.566 252.487 127.313C252.857 130.245 253.335 134.035 251.644 138.365C251.067 139.843 248.268 146.427 242.91 147.259C241.858 147.422 239.388 147.465 240.1 146.932C246.69 141.993 249.502 139.011 249.271 131.399C249.128 126.67 242.009 121.563 237.782 120.646C236.001 120.259 233.63 120.612 231.93 122.029C228.378 124.99 228.529 137.233 224.783 139.793C223.242 140.845 224.269 133.436 223.183 134.638C221.041 137.008 222.415 140.639 222.8 142.022C224.626 148.58 228.068 149.222 229.852 154.823C231.777 160.87 229.354 166.563 228.779 167.913C227.779 170.261 226.064 174.291 222.145 176.225C217.17 178.679 213.248 175.483 210.935 178.223C209.642 179.755 210.342 181.377 208.006 186.141C207.244 187.696 206.863 188.474 206.526 188.446C204.929 188.316 202.343 175.34 206.525 163.256C208.28 158.185 209.999 153.216 214.607 149.331C217.044 147.277 219.087 146.538 219.669 144.139C220.5 140.712 217.049 139.25 216.358 133.843C215.885 130.145 215.553 124.856 216.839 121.466C218.053 118.265 219.108 115.486 221.867 112.967C222.53 112.362 227.881 108.248 233.554 108.132C236.165 108.079 238.084 111.694 241.112 112.774Z" fill="#2F2E43"/>
<path d="M183.055 141.226C190.417 141.226 196.384 135.258 196.384 127.897C196.384 120.536 190.417 114.568 183.055 114.568C175.694 114.568 169.727 120.536 169.727 127.897C169.727 135.258 175.694 141.226 183.055 141.226Z" fill="#FFB6B6"/>
<path d="M190.118 144.039L172.573 149.051L170.067 154.69L164.428 181.633V224.241C164.428 224.241 160.668 235.915 164.428 249.074C168.446 263.138 179.466 249.901 190.118 251.796C200.77 253.69 217.687 255.57 217.687 255.57L207.662 209.83L205.156 154.064L190.118 144.039Z" fill="#F54749"/>
<path d="M186.807 132.262L184.097 130.907C184.097 130.907 183.42 124.81 182.065 123.455C180.71 122.1 180.71 121.423 180.71 121.423L182.742 118.713C182.742 118.713 172.58 124.133 170.548 120.745C168.515 117.358 171.225 116.003 171.225 116.003L167.838 113.293C167.838 113.293 171.903 116.003 172.58 113.971C173.258 111.938 177.322 110.559 177.322 110.559C177.322 110.559 186.199 112.568 185.487 110.559C184.775 108.551 187.484 110.583 188.162 111.261C188.839 111.938 194.937 118.713 195.614 118.035C196.292 117.358 199.679 119.39 199.001 120.068C198.324 120.745 198.324 121.423 199.001 122.1C199.679 122.778 203.744 130.23 200.356 132.94C196.969 135.65 192.227 139.037 192.904 141.747C193.582 144.457 192.904 132.94 186.807 132.262Z" fill="#2F2E41"/>
<path d="M121.102 165.821C117.681 162.872 116.43 158.716 118.307 156.539C120.184 154.362 124.479 154.989 127.9 157.939C129.283 159.099 130.369 160.573 131.065 162.239L145.402 174.917L139.309 181.518L125.822 168.319C124.072 167.875 122.454 167.018 121.102 165.821Z" fill="#FFB6B6"/>
<path d="M170.217 154.906L179.662 154.047L187.944 193.547C189.522 201.073 184.588 208.422 177.024 209.81L170.217 211.06L126.833 172.861L133.171 162.294L165.165 182.364L170.217 154.906Z" fill="#F54749"/>
<path d="M149.133 330.566C149.133 330.566 141.643 344.477 142.178 343.942C142.713 343.407 151.808 346.617 151.808 346.617L157.159 332.706L149.133 330.566Z" fill="#FFB6B6"/>
<path d="M138.078 233.191C138.078 233.191 134.243 248.518 134.63 247.868C135.017 247.218 144.623 248.089 144.623 248.089L146.383 233.289L138.078 233.191Z" fill="#FFB6B6"/>
<path d="M204.778 230.614C187.85 232.992 172.56 230.918 160.102 221.15C160.102 221.15 151.006 251.647 167.593 254.858C184.179 258.068 202.638 252.55 204.778 247.2C206.918 241.85 204.778 230.614 204.778 230.614Z" fill="#2F2E41"/>
<path d="M173.211 240.245L154.752 283.751L146.191 334.044L157.427 336.72L177.525 290.439L204.778 246.131L173.211 240.245Z" fill="#2F2E41"/>
<path d="M170.802 227.839C170.802 227.839 166.522 194.666 158.496 192.526C154.584 191.483 150.925 191.584 148.203 191.961C145.46 192.342 143.273 194.438 142.793 197.166L135.5 238.64H145.813L149.133 227.404L157.961 242.82L170.802 227.839Z" fill="#2F2E41"/>
<path d="M144.585 243.889L134.388 242.819L132.814 248.705C132.814 248.705 116.228 263.686 124.789 264.756C133.35 265.826 141.375 259.941 141.375 259.941L153.151 253.185C153.151 253.185 148.598 241.047 145.388 241.047C142.178 241.047 144.585 243.889 144.585 243.889Z" fill="#2F2E41"/>
<path d="M149.936 344.21L139.739 343.14L138.165 349.025C138.165 349.025 121.579 364.006 130.139 365.076C138.7 366.146 146.726 360.261 146.726 360.261L158.502 353.505C158.502 353.505 157.694 340.832 154.484 340.832C151.274 340.832 149.936 344.21 149.936 344.21Z" fill="#2F2E41"/>
<path d="M201.568 263.213C200.338 267.43 197.166 270.214 194.482 269.431C191.799 268.648 190.621 264.595 191.851 260.377C192.319 258.685 193.186 257.13 194.379 255.842L199.814 238.041L208.113 240.769L201.874 258.029C202.187 259.756 202.082 261.534 201.568 263.213Z" fill="#FFB6B6"/>
<path d="M207.313 154.141L202.985 152.921C198.905 161.04 197.15 170.129 197.915 179.184L200.051 204.448L193.004 248.855L206.817 252.429L217.701 196.7L207.313 154.141Z" fill="#F54749"/>
<path d="M111.045 165.175L110.441 146.132C110.431 145.822 110.553 145.521 110.774 145.306C110.996 145.09 111.301 144.977 111.61 144.996L126.721 145.902C127.027 145.92 127.313 146.066 127.507 146.302C127.701 146.538 127.789 146.848 127.748 147.15L125.192 166.078C125.115 166.651 124.603 167.07 124.026 167.031L112.074 166.241C111.953 166.233 111.838 166.206 111.731 166.163C111.336 166.003 111.059 165.624 111.045 165.175Z" fill="#E2383A"/>
<path d="M110.46 144.35C110.672 144.327 110.955 144.3 111.295 144.271C111.204 144.102 111.167 143.902 111.206 143.697L111.476 142.27C111.546 141.9 111.844 141.616 112.217 141.566C114.442 141.269 122.096 140.461 126.915 142.648C127.216 142.785 127.41 143.085 127.42 143.416L127.464 144.938C127.469 145.126 127.415 145.3 127.319 145.445C127.719 145.553 128.119 145.666 128.515 145.791C128.763 145.869 128.941 146.088 128.971 146.346L129.046 146.994C129.093 147.406 128.756 147.759 128.343 147.731L110.276 146.511C109.865 146.483 109.579 146.091 109.678 145.691L109.886 144.85C109.953 144.578 110.183 144.379 110.46 144.35Z" fill="#3F3D56"/>
<defs>
<linearGradient id="paint0_linear_2514_4684" x1="42.4851" y1="248.09" x2="189.411" y2="363.439" gradientUnits="userSpaceOnUse">
<stop stop-color="#F34648"/>
<stop offset="1" stop-color="#DC3334"/>
</linearGradient>
</defs>
</svg>
